<svg xmlns="http://www.w3.org/2000/svg" width="90.727" height="77.766" viewBox="0 0 90.727 77.766">
  <g id="ac" transform="translate(-2 -4)">
    <g id="Group_387" data-name="Group 387" transform="translate(2 4)">
      <rect id="Rectangle_62" data-name="Rectangle 62" width="13" height="6" transform="translate(61.727 36)" fill="#4a44e2"/>
      <rect id="Rectangle_63" data-name="Rectangle 63" width="16.267" height="6.48" transform="translate(56.164 23.501) rotate(-45)" fill="#4a44e2"/>
      <rect id="Rectangle_64" data-name="Rectangle 64" width="6.48" height="16.267" transform="translate(56.164 54.265) rotate(-45)" fill="#4a44e2"/>
      <path id="Path_131" data-name="Path 131" d="M34.4,70.805a32.4,32.4,0,1,1,32.4-32.4A32.44,32.44,0,0,1,34.4,70.805Zm0-58.325A25.922,25.922,0,1,0,60.325,38.4,25.952,25.952,0,0,0,34.4,12.481Z" transform="translate(-2 0.481)" fill="#4a44e2"/>
      <path id="Path_132" data-name="Path 132" d="M28.442,35.922A9.731,9.731,0,0,0,18.721,26.2a3.24,3.24,0,1,1,2.807-4.848,3.24,3.24,0,0,0,5.6-3.266,9.641,9.641,0,0,0-5.164-4.226V13.24a3.24,3.24,0,1,0-6.481,0v.6a9.7,9.7,0,0,0,3.24,18.844,3.24,3.24,0,1,1-2.807,4.848,3.24,3.24,0,0,0-5.6,3.266,9.641,9.641,0,0,0,5.164,4.226v.622a3.24,3.24,0,0,0,6.481,0v-.6A9.7,9.7,0,0,0,28.442,35.922Z" transform="translate(13.682 9.442)" fill="#4a44e2"/>
      <path id="Path_133" data-name="Path 133" d="M33.721,32.442a9.721,9.721,0,1,1,9.721-9.721A9.731,9.731,0,0,1,33.721,32.442Zm0-12.961a3.24,3.24,0,1,0,3.24,3.24A3.242,3.242,0,0,0,33.721,19.481Z" transform="translate(47.286 16.162)" fill="#4a44e2"/>
      <path id="Path_134" data-name="Path 134" d="M31.721,23.442a9.721,9.721,0,1,1,9.721-9.721A9.731,9.731,0,0,1,31.721,23.442Zm0-12.961a3.24,3.24,0,1,0,3.24,3.24A3.242,3.242,0,0,0,31.721,10.481Z" transform="translate(42.805 -4)" fill="#4a44e2"/>
      <path id="Path_135" data-name="Path 135" d="M31.721,41.442a9.721,9.721,0,1,1,9.721-9.721A9.731,9.731,0,0,1,31.721,41.442Zm0-12.961a3.24,3.24,0,1,0,3.24,3.24A3.242,3.242,0,0,0,31.721,28.481Z" transform="translate(42.805 36.325)" fill="#4a44e2"/>
    </g>
  </g>
</svg>
