<svg xmlns="http://www.w3.org/2000/svg" width="62.813" height="77.309" viewBox="0 0 62.813 77.309">
  <g id="Annual" transform="translate(-3)">
    <path id="Path_226" data-name="Path 226" d="M63.4,24.159a2.416,2.416,0,0,0,2.416-2.416V16.911a7.248,7.248,0,0,0-7.248-7.248H56.15V7.248A7.248,7.248,0,0,0,48.9,0H10.248A7.248,7.248,0,0,0,3,7.248V60.4a7.248,7.248,0,0,0,7.248,7.248h2.416v2.416a7.248,7.248,0,0,0,7.248,7.248H58.566a7.248,7.248,0,0,0,7.248-7.248V31.407a2.416,2.416,0,0,0-4.832,0V70.061a2.416,2.416,0,0,1-2.416,2.416H19.911A2.416,2.416,0,0,1,17.5,70.061V16.911A2.416,2.416,0,0,1,19.911,14.5H58.566a2.416,2.416,0,0,1,2.416,2.416v4.832A2.416,2.416,0,0,0,63.4,24.159ZM12.664,16.911v45.9H10.248A2.416,2.416,0,0,1,7.832,60.4V7.248a2.416,2.416,0,0,1,2.416-2.416H48.9a2.416,2.416,0,0,1,2.416,2.416V9.664H19.911a7.248,7.248,0,0,0-7.248,7.248Z" transform="translate(0 0)" fill="#4a44e2"/>
    <path id="Path_227" data-name="Path 227" d="M22.248,20.079a2.416,2.416,0,0,1,0-4.832h4.832a2.416,2.416,0,0,0,0-4.832H24.664a2.416,2.416,0,0,0-4.832,0v.435a7.248,7.248,0,0,0,2.416,14.06,2.416,2.416,0,0,1,0,4.832H17.416a2.416,2.416,0,0,0,0,4.832h2.416a2.416,2.416,0,0,0,4.832,0V34.14a7.248,7.248,0,0,0-2.416-14.061Z" transform="translate(16.991 11.327)" fill="#4a44e2"/>
    <path id="Path_228" data-name="Path 228" d="M18.248,26.832H13.416a2.416,2.416,0,0,1,0-4.832h4.832a2.416,2.416,0,0,1,0,4.832Z" transform="translate(11.327 31.15)" fill="#4a44e2"/>
    <path id="Path_229" data-name="Path 229" d="M33.911,26.832h-14.5a2.416,2.416,0,0,1,0-4.832h14.5a2.416,2.416,0,0,1,0,4.832Z" transform="translate(19.823 31.15)" fill="#4a44e2"/>
    <path id="Path_230" data-name="Path 230" d="M18.248,30.832H13.416a2.416,2.416,0,0,1,0-4.832h4.832a2.416,2.416,0,0,1,0,4.832Z" transform="translate(11.327 36.813)" fill="#4a44e2"/>
    <path id="Path_231" data-name="Path 231" d="M33.911,30.832h-14.5a2.416,2.416,0,0,1,0-4.832h14.5a2.416,2.416,0,0,1,0,4.832Z" transform="translate(19.823 36.813)" fill="#4a44e2"/>
  </g>
</svg>
