<svg id="Group_2105" data-name="Group 2105" xmlns="http://www.w3.org/2000/svg" width="70.109" height="85.995" viewBox="0 0 70.109 85.995">
  <path id="Path_9310" data-name="Path 9310" d="M28.066,0h.612A18.415,18.415,0,0,1,24.04,13.877c-2.76,3.259-6.54,6.42-12.654,5.94A17.862,17.862,0,0,1,16.107,6.37,20.388,20.388,0,0,1,28.066,0Z" transform="translate(23.536)" fill="#141414"/>
  <path id="Path_9311" data-name="Path 9311" d="M72.213,47.877v.17a50.033,50.033,0,0,1-7.16,13.8c-2.73,3.757-6.076,8.814-12.05,8.814-5.162,0-8.591-3.319-13.881-3.41-5.6-.091-8.674,2.775-13.791,3.5H23.587c-3.757-.544-6.79-3.519-9-6.2A54.324,54.324,0,0,1,2.1,33.3V29.45c.4-9.373,4.951-16.993,11-20.686A18.583,18.583,0,0,1,25.584,5.875,31.386,31.386,0,0,1,31.7,7.627c1.779.683,4,1.9,6.11,1.831a14.666,14.666,0,0,0,4.286-1.31C46.308,6.626,50.439,4.882,55.884,5.7c6.544.989,11.189,3.9,14.059,8.383-5.536,3.523-9.912,8.833-9.165,17.9C61.443,40.219,66.231,45.038,72.213,47.877Z" transform="translate(-2.104 15.245)" fill="#141414"/>
</svg>
