<svg xmlns="http://www.w3.org/2000/svg" width="58.928" height="75" viewBox="0 0 58.928 75">
  <g id="ad" transform="translate(-5 -2)">
    <g id="Group_1282" data-name="Group 1282" transform="translate(5 2)">
      <path id="Path_8947" data-name="Path 8947" d="M37.75,21.75H21.679A2.677,2.677,0,0,1,19,19.071V3h5.357V16.393H37.75Z" transform="translate(18.5 -0.321)" fill="#f4f4f4"/>
      <path id="Path_8948" data-name="Path 8948" d="M61.25,77H7.679A2.677,2.677,0,0,1,5,74.321V4.679A2.677,2.677,0,0,1,7.679,2h37.5a2.677,2.677,0,0,1,1.894.785L63.144,18.856a2.677,2.677,0,0,1,.785,1.894V74.321A2.677,2.677,0,0,1,61.25,77ZM10.357,71.643H58.571V21.859l-14.5-14.5H10.357Z" transform="translate(-5 -2)" fill="#f4f4f4"/>
      <path id="Path_8949" data-name="Path 8949" d="M35.043,25.429H23.2L17.274,15.17l-4.64,2.679,6.338,10.978V41.5h5.357V30.786H35.043Z" transform="translate(7.814 20.107)" fill="#f4f4f4"/>
      <path id="Path_8950" data-name="Path 8950" d="M26.071,46.143A16.071,16.071,0,1,1,42.143,30.071,16.089,16.089,0,0,1,26.071,46.143Zm0-26.786A10.714,10.714,0,1,0,36.786,30.071,10.725,10.725,0,0,0,26.071,19.357Z" transform="translate(3.393 18.143)" fill="#f4f4f4"/>
      <path id="Path_8951" data-name="Path 8951" d="M22.393,11.357H11.679a2.679,2.679,0,0,1,0-5.357H22.393a2.679,2.679,0,1,1,0,5.357Z" transform="translate(1.714 4.714)" fill="#f4f4f4"/>
      <path id="Path_8952" data-name="Path 8952" d="M27.75,15.357H11.679a2.679,2.679,0,1,1,0-5.357H27.75a2.679,2.679,0,0,1,0,5.357Z" transform="translate(1.714 11.429)" fill="#f4f4f4"/>
    </g>
  </g>
</svg>
