<svg xmlns="http://www.w3.org/2000/svg" width="53.462" height="77.763" viewBox="0 0 53.462 77.763">
  <g id="Barcode" transform="translate(-5 77.763) rotate(-90)">
    <path id="Path_8863" data-name="Path 8863" d="M7.43,43.021A2.43,2.43,0,0,1,5,40.591V11.43a2.43,2.43,0,1,1,4.86,0V40.591A2.43,2.43,0,0,1,7.43,43.021Z" transform="translate(7.15 5.72)" fill="#4a44e2"/>
    <path id="Path_8864" data-name="Path 8864" d="M11.43,33.3A2.43,2.43,0,0,1,9,30.871V11.43a2.43,2.43,0,0,1,4.86,0V30.871A2.43,2.43,0,0,1,11.43,33.3Z" transform="translate(12.871 5.72)" fill="#4a44e2"/>
    <path id="Path_8865" data-name="Path 8865" d="M15.43,33.3A2.43,2.43,0,0,1,13,30.871V11.43a2.43,2.43,0,1,1,4.86,0V30.871A2.43,2.43,0,0,1,15.43,33.3Z" transform="translate(18.591 5.72)" fill="#4a44e2"/>
    <path id="Path_8866" data-name="Path 8866" d="M19.43,43.021A2.43,2.43,0,0,1,17,40.591V11.43a2.43,2.43,0,0,1,4.86,0V40.591A2.43,2.43,0,0,1,19.43,43.021Z" transform="translate(24.311 5.72)" fill="#4a44e2"/>
    <path id="Path_8867" data-name="Path 8867" d="M23.43,33.3A2.43,2.43,0,0,1,21,30.871V11.43a2.43,2.43,0,1,1,4.86,0V30.871A2.43,2.43,0,0,1,23.43,33.3Z" transform="translate(30.032 5.72)" fill="#4a44e2"/>
    <path id="Path_8868" data-name="Path 8868" d="M27.43,43.021A2.43,2.43,0,0,1,25,40.591V11.43a2.43,2.43,0,1,1,4.86,0V40.591A2.43,2.43,0,0,1,27.43,43.021Z" transform="translate(35.752 5.72)" fill="#4a44e2"/>
    <path id="Path_8869" data-name="Path 8869" d="M11.43,25.86a2.43,2.43,0,1,1,2.43-2.43A2.43,2.43,0,0,1,11.43,25.86Z" transform="translate(12.871 22.881)" fill="#4a44e2"/>
    <path id="Path_8870" data-name="Path 8870" d="M15.43,25.86a2.43,2.43,0,1,1,2.43-2.43A2.43,2.43,0,0,1,15.43,25.86Z" transform="translate(18.591 22.881)" fill="#4a44e2"/>
    <path id="Path_8871" data-name="Path 8871" d="M23.43,25.86a2.43,2.43,0,1,1,2.43-2.43A2.43,2.43,0,0,1,23.43,25.86Z" transform="translate(30.032 22.881)" fill="#4a44e2"/>
    <path id="Path_8872" data-name="Path 8872" d="M70.472,58.462H7.29A7.29,7.29,0,0,1,0,51.172V12.29A7.29,7.29,0,0,1,7.29,5H70.472a7.29,7.29,0,0,1,7.29,7.29v24.3a2.43,2.43,0,1,1-4.86,0V12.29a2.43,2.43,0,0,0-2.43-2.43H7.29a2.43,2.43,0,0,0-2.43,2.43V51.172A2.43,2.43,0,0,0,7.29,53.6H70.472a2.43,2.43,0,0,0,2.43-2.43v-4.86a2.43,2.43,0,0,1,4.86,0v4.86A7.29,7.29,0,0,1,70.472,58.462Z" fill="#4a44e2"/>
  </g>
</svg>
