<svg xmlns="http://www.w3.org/2000/svg" width="77.743" height="77.766" viewBox="0 0 77.743 77.766">
  <g id="Cash_flow" data-name="Cash flow" transform="translate(0.001)">
    <path id="Path_242" data-name="Path 242" d="M20.288,22.147a2.429,2.429,0,1,1,0-4.859h4.859a2.429,2.429,0,0,0,0-4.859H22.718a2.429,2.429,0,1,0-4.859,0v.437a7.288,7.288,0,0,0,2.429,14.139,2.429,2.429,0,1,1,0,4.859H15.429a2.429,2.429,0,0,0,0,4.859h2.429a2.429,2.429,0,0,0,4.859,0v-.437a7.288,7.288,0,0,0-2.429-14.139Z" transform="translate(18.584 14.294)" fill="#4a44e2"/>
    <path id="Path_243" data-name="Path 243" d="M2.321,26.149A2.438,2.438,0,1,1,6.548,23.72a34.012,34.012,0,0,0,56.678,3.4,2.429,2.429,0,1,1,3.887,2.915A38.87,38.87,0,0,1,2.321,26.149Z" transform="translate(2.855 32.157)" fill="#4a44e2"/>
    <path id="Path_244" data-name="Path 244" d="M3.743,29.576A2.429,2.429,0,0,1,1.313,27.8,38.288,38.288,0,0,1,0,17.429a2.429,2.429,0,1,1,4.859,0A34.384,34.384,0,0,0,6.076,26.5a2.429,2.429,0,0,1-2.333,3.081Z" transform="translate(0 21.441)" fill="#4a44e2"/>
    <path id="Path_245" data-name="Path 245" d="M36.012,0A38.482,38.482,0,0,0,6.859,13.24V12.147a2.429,2.429,0,0,0-4.859,0v7.288a2.429,2.429,0,0,0,2.429,2.429h7.288a2.429,2.429,0,0,0,0-4.859H10.041A33.6,33.6,0,0,1,36.012,4.859,34.012,34.012,0,0,1,70.023,38.871a2.429,2.429,0,1,0,4.859,0A38.87,38.87,0,0,0,36.012,0Z" transform="translate(2.86 0)" fill="#4a44e2"/>
    <path id="Path_246" data-name="Path 246" d="M34.718,35.147a2.429,2.429,0,0,1-2.429-2.429V27.859H27.429a2.429,2.429,0,1,1,0-4.859h7.288a2.429,2.429,0,0,1,2.429,2.429v7.288A2.429,2.429,0,0,1,34.718,35.147Z" transform="translate(35.737 32.876)" fill="#4a44e2"/>
    <path id="Path_247" data-name="Path 247" d="M30.294,54.588A24.294,24.294,0,1,1,54.588,30.294,24.294,24.294,0,0,1,30.294,54.588Zm0-43.729A19.435,19.435,0,1,0,49.729,30.294,19.435,19.435,0,0,0,30.294,10.859Z" transform="translate(8.578 8.577)" fill="#4a44e2"/>
  </g>
</svg>
