<svg xmlns="http://www.w3.org/2000/svg" width="68.042" height="77.763" viewBox="0 0 68.042 77.763">
  <g id="Chart_Bar" data-name="Chart Bar" transform="translate(-2)">
    <path id="Path_238" data-name="Path 238" d="M24.15,57.741H19.29A7.29,7.29,0,0,1,12,50.451V35.871a2.43,2.43,0,1,1,4.86,0v14.58a2.43,2.43,0,0,0,2.43,2.43h4.86a2.43,2.43,0,0,0,2.43-2.43V21.29a2.43,2.43,0,0,0-2.43-2.43H19.29a2.43,2.43,0,0,0-2.43,2.43v4.86a2.43,2.43,0,0,1-4.86,0V21.29A7.29,7.29,0,0,1,19.29,14h4.86a7.29,7.29,0,0,1,7.29,7.29V50.451A7.29,7.29,0,0,1,24.15,57.741Z" transform="translate(14.301 20.021)" fill="#4a44e2"/>
    <path id="Path_239" data-name="Path 239" d="M14.15,52.021H9.29A7.29,7.29,0,0,1,2,44.731V25.29A7.29,7.29,0,0,1,9.29,18h4.86a7.29,7.29,0,0,1,7.29,7.29V44.731A7.29,7.29,0,0,1,14.15,52.021ZM9.29,22.86a2.43,2.43,0,0,0-2.43,2.43V44.731a2.43,2.43,0,0,0,2.43,2.43h4.86a2.43,2.43,0,0,0,2.43-2.43V25.29a2.43,2.43,0,0,0-2.43-2.43Z" transform="translate(0 25.742)" fill="#4a44e2"/>
    <path id="Path_240" data-name="Path 240" d="M34.15,63.462H29.29A7.29,7.29,0,0,1,22,56.172V17.29A7.29,7.29,0,0,1,29.29,10h4.86a7.29,7.29,0,0,1,7.29,7.29V56.172A7.29,7.29,0,0,1,34.15,63.462Zm-4.86-48.6a2.43,2.43,0,0,0-2.43,2.43V56.172a2.43,2.43,0,0,0,2.43,2.43h4.86a2.43,2.43,0,0,0,2.43-2.43V17.29a2.43,2.43,0,0,0-2.43-2.43Z" transform="translate(28.602 14.301)" fill="#4a44e2"/>
    <path id="Path_241" data-name="Path 241" d="M58.868,0a7.29,7.29,0,0,0-7.29,8.019l-11.47,4.326A7.29,7.29,0,0,0,27.3,17.205L15.418,21.579A7.29,7.29,0,1,0,17.556,26L29.1,21.676a7.29,7.29,0,0,0,12.758-4.666L53.74,12.564A7.29,7.29,0,1,0,58.868,0Zm-48.6,29.161a2.43,2.43,0,1,1,2.43-2.43A2.43,2.43,0,0,1,10.266,29.161Zm24.3-9.72A2.43,2.43,0,1,1,37,17.011,2.43,2.43,0,0,1,34.567,19.441Zm24.3-9.72A2.43,2.43,0,1,1,61.3,7.29,2.43,2.43,0,0,1,58.868,9.72Z" transform="translate(1.454 0)" fill="#4a44e2"/>
  </g>
</svg>
