<svg xmlns="http://www.w3.org/2000/svg" width="67.983" height="77.695" viewBox="0 0 67.983 77.695">
  <g id="Chart" transform="translate(-2)">
    <path id="Path_232" data-name="Path 232" d="M14.14,63.416H9.284A7.284,7.284,0,0,1,2,56.132V36.708a2.428,2.428,0,1,1,4.856,0V56.132A2.428,2.428,0,0,0,9.284,58.56H14.14a2.428,2.428,0,0,0,2.428-2.428V17.284a2.428,2.428,0,0,0-2.428-2.428H9.284a2.428,2.428,0,0,0-2.428,2.428V27A2.428,2.428,0,0,1,2,27V17.284A7.284,7.284,0,0,1,9.284,10H14.14a7.284,7.284,0,0,1,7.284,7.284V56.132a7.284,7.284,0,0,1-7.284,7.284Z" transform="translate(0 14.28)" fill="#4a44e2"/>
    <path id="Path_233" data-name="Path 233" d="M24.14,49.136H19.284A7.284,7.284,0,0,1,12,41.852V27.284A7.284,7.284,0,0,1,19.284,20H24.14a7.284,7.284,0,0,1,7.284,7.284V41.852A7.284,7.284,0,0,1,24.14,49.136Zm-4.856-24.28a2.428,2.428,0,0,0-2.428,2.428V41.852a2.428,2.428,0,0,0,2.428,2.428H24.14a2.428,2.428,0,0,0,2.428-2.428V27.284a2.428,2.428,0,0,0-2.428-2.428Z" transform="translate(14.28 28.56)" fill="#4a44e2"/>
    <path id="Path_234" data-name="Path 234" d="M34.14,54.848H29.284A7.284,7.284,0,0,1,22,47.564V23.284A7.284,7.284,0,0,1,29.284,16H34.14a7.284,7.284,0,0,1,7.284,7.284v24.28A7.284,7.284,0,0,1,34.14,54.848ZM29.284,20.856a2.428,2.428,0,0,0-2.428,2.428v24.28a2.428,2.428,0,0,0,2.428,2.428H34.14a2.428,2.428,0,0,0,2.428-2.428V23.284a2.428,2.428,0,0,0-2.428-2.428Z" transform="translate(28.56 22.848)" fill="#4a44e2"/>
    <path id="Path_235" data-name="Path 235" d="M30.284,12.14a2.428,2.428,0,0,1,0-4.856H35.14a2.428,2.428,0,0,0,0-4.856H32.712a2.428,2.428,0,1,0-4.856,0v.437A7.284,7.284,0,0,0,30.284,17a2.428,2.428,0,1,1,0,4.856H25.428a2.428,2.428,0,0,0,0,4.856h2.428a2.428,2.428,0,0,0,4.856,0v-.437A7.284,7.284,0,0,0,30.284,12.14Z" transform="translate(29.988)" fill="#4a44e2"/>
    <path id="Path_236" data-name="Path 236" d="M30,7.856H15.428a2.428,2.428,0,0,1,0-4.856H30a2.428,2.428,0,0,1,0,4.856Z" transform="translate(15.708 4.284)" fill="#4a44e2"/>
    <path id="Path_237" data-name="Path 237" d="M27.14,11.856H17.428a2.428,2.428,0,0,1,0-4.856H27.14a2.428,2.428,0,0,1,0,4.856Z" transform="translate(18.564 9.996)" fill="#4a44e2"/>
  </g>
</svg>
