<svg xmlns="http://www.w3.org/2000/svg" width="63.002" height="77.541" viewBox="0 0 63.002 77.541">
  <g id="Charity" transform="translate(-3)">
    <path id="Path_8873" data-name="Path 8873" d="M13.423,22.808A2.423,2.423,0,0,1,11,20.385V3.423a2.423,2.423,0,1,1,4.846,0V20.385A2.423,2.423,0,0,1,13.423,22.808Z" transform="translate(11.385 1.423)" fill="#4a44e2"/>
    <path id="Path_8874" data-name="Path 8874" d="M21.423,19.962A2.423,2.423,0,0,1,19,17.539V5.423a2.423,2.423,0,0,1,4.846,0V17.539A2.423,2.423,0,0,1,21.423,19.962Z" transform="translate(22.771 4.269)" fill="#4a44e2"/>
    <path id="Path_8875" data-name="Path 8875" d="M17.423,4.846a2.423,2.423,0,1,1,2.423-2.423A2.423,2.423,0,0,1,17.423,4.846Z" transform="translate(17.078)" fill="#4a44e2"/>
    <path id="Path_8876" data-name="Path 8876" d="M63.579,30.539A2.423,2.423,0,0,0,66,28.116V23.269A7.269,7.269,0,0,0,58.733,16H10.269A7.269,7.269,0,0,0,3,23.269V47.5a7.269,7.269,0,0,0,7.269,7.269H58.733A7.269,7.269,0,0,0,66,47.5V37.808a2.423,2.423,0,0,0-4.846,0V47.5a2.423,2.423,0,0,1-2.423,2.423H10.269A2.423,2.423,0,0,1,7.846,47.5V30.539ZM7.846,23.269a2.423,2.423,0,0,1,2.423-2.423H58.733a2.423,2.423,0,0,1,2.423,2.423v2.423H7.846Z" transform="translate(0 22.771)" fill="#4a44e2"/>
    <path id="Path_8877" data-name="Path 8877" d="M23.116,28.232A12.116,12.116,0,1,1,35.232,16.116,12.116,12.116,0,0,1,23.116,28.232Zm0-19.385a7.269,7.269,0,1,0,7.269,7.269A7.269,7.269,0,0,0,23.116,8.846Z" transform="translate(11.385 5.693)" fill="#4a44e2"/>
    <path id="Path_8878" data-name="Path 8878" d="M28.962,29.846H14.423a2.423,2.423,0,0,1,0-4.846H28.962a2.423,2.423,0,0,1,0,4.846Z" transform="translate(12.808 35.579)" fill="#4a44e2"/>
  </g>
</svg>
