<svg id="Coins" xmlns="http://www.w3.org/2000/svg" width="77.661" height="77.696" viewBox="0 0 77.661 77.696">
  <path id="Path_8879" data-name="Path 8879" d="M20.281,18.134a2.427,2.427,0,1,1,0-4.854h4.854a2.427,2.427,0,0,0,0-4.854H22.708a2.427,2.427,0,0,0-4.854,0v.437a7.281,7.281,0,0,0,2.427,14.125,2.427,2.427,0,1,1,0,4.854H15.427a2.427,2.427,0,0,0,0,4.854h2.427a2.427,2.427,0,1,0,4.854,0v-.437a7.281,7.281,0,0,0-2.427-14.125Z" transform="translate(18.55 8.561)" fill="#4a44e2"/>
  <path id="Path_8880" data-name="Path 8880" d="M72.807,57.819H58.246V50.538a4.854,4.854,0,0,0-4.854-4.854,24.269,24.269,0,1,0-29.123,0H21.842a4.854,4.854,0,0,0-4.854,4.854v7.281H4.854A4.854,4.854,0,0,0,0,62.672v7.281a4.854,4.854,0,0,0,4.854,4.854h7.281a2.427,2.427,0,0,0,0-4.854H4.854V62.672H36.4v7.281H21.842a2.427,2.427,0,1,0,0,4.854c15.556,0,15.411.243,16.988-.68,1.626.946-.218.68,33.977.68a4.854,4.854,0,0,0,4.854-4.854V62.672A4.854,4.854,0,0,0,72.807,57.819ZM19.415,26.269A19.415,19.415,0,1,1,38.83,45.684,19.415,19.415,0,0,1,19.415,26.269Zm2.427,31.55V50.538h31.55v7.281ZM41.257,69.953V62.672h31.55v7.281Z" transform="translate(0 2.854)" fill="#4a44e2"/>
  <path id="Path_8881" data-name="Path 8881" d="M25.427,9.708A2.427,2.427,0,0,1,23,7.281V2.427a2.427,2.427,0,0,1,4.854,0V7.281A2.427,2.427,0,0,1,25.427,9.708Z" transform="translate(32.819)" fill="#4a44e2"/>
  <path id="Path_8882" data-name="Path 8882" d="M34.281,10.854H29.427a2.427,2.427,0,0,1,0-4.854h4.854a2.427,2.427,0,1,1,0,4.854Z" transform="translate(38.526 8.561)" fill="#4a44e2"/>
  <path id="Path_8883" data-name="Path 8883" d="M28.435,9.287a2.427,2.427,0,0,1-1.723-4.15L29.139,2.71a2.437,2.437,0,0,1,3.446,3.446C30.013,8.728,29.7,9.287,28.435,9.287Z" transform="translate(37.091 2.848)" fill="#4a44e2"/>
</svg>
