<svg xmlns="http://www.w3.org/2000/svg" width="354.574" height="118.4" viewBox="0 0 354.574 118.4">
  <g id="D._R._Horton_logo" transform="translate(-229.926 -49.1)">
    <g id="Group">
      <path id="Path_9316" data-name="Path 9316" d="M254,66.6c1.4.3,1.2,1.3,1.2,1.3s-.1,35.4,0,40.3c-.7,4.7-8.2,4.3-8.2,4.3V66.6Zm-6-2.3H231.7s-1.6.3-1.4,1.2.9,1.2,2.5,1.2v45.2l-.7.7s-1.7,0-2.1,1,.9,1.3,1.9,1.3h23.2s14.1-.6,14.1-9.9V73.4s-1.9-8.8-11.2-9.1Z" fill="#141414"/>
      <path id="Path_9317" data-name="Path 9317" d="M278.4,92.1a3.605,3.605,0,1,0-3.8-3.6A3.7,3.7,0,0,0,278.4,92.1Z" fill="#141414"/>
      <path id="Path_9318" data-name="Path 9318" d="M331.8,92.1a3.605,3.605,0,1,0-3.8-3.6A3.828,3.828,0,0,0,331.8,92.1Z" fill="#141414"/>
      <path id="Path_9319" data-name="Path 9319" d="M314.4,64.5c2.6,0,7.3,4.4,7.7,7.9a61.26,61.26,0,0,1,.4,7.2c0,7.6-7.1,9.4-7.1,9.4,1.2.4,3.9.5,6.3,2,2.4,1.4,3,4.7,3,4.7V112l.7.6h2.4c.4,0,.6-.1.7.9a1.1,1.1,0,0,1-1.2,1.3H312.5c-1.6,0-2.8-2.8-2.8-2.8V92.8c0-1.5-2.9-1.7-2.9-1.7H302v20.8l.4.5h1.8c.3,0,.9-.3.9,1,.1,1.5-.6,1.1-.6,1.1H285.6c-.5,0-.9-.1-.9-.9,0-.7.9-1.2.9-1.2h1.3l1-1V67.2l-.7-.6h-1.5c-1.1,0-.6-.4-.6-1.4-.1-.9.9-.7.9-.7Zm-9,2.1h-3.3V88.4h6.1s1.5-.1,1.5-2V68a2.086,2.086,0,0,0-2-1.5C306.2,66.6,305.4,66.6,305.4,66.6Z" fill="#141414"/>
      <path id="Path_9320" data-name="Path 9320" d="M454.9,64.5c2.6,0,7.3,4.4,7.7,7.9a61.26,61.26,0,0,1,.4,7.2,9.677,9.677,0,0,1-7,9.4c1.2.4,3.9.5,6.3,2,2.4,1.4,3,4.7,3,4.7V112l.7.6h2.4c.4,0,.6-.1.7.9a1.1,1.1,0,0,1-1.2,1.3H453.2c-1.6,0-2.8-2.8-2.8-2.8V92.8c0-1.5-3-1.7-3-1.7h-4.8v20.8l.4.5h1.8c.3,0,.9-.3.9,1,.1,1.5-.6,1.1-.6,1.1H426.2c-.5,0-.9-.1-.9-.9,0-.7.9-1.2.9-1.2h1.3l1-1V67.2l-.7-.6h-1.5c-1.1,0-.6-.4-.7-1.4-.1-.9.9-.7.9-.7Zm-9,2.1h-3.3V88.4h6.1s1.5-.1,1.5-2V68a2.086,2.086,0,0,0-2-1.5C446.6,66.6,445.9,66.6,445.9,66.6Z" fill="#141414"/>
      <path id="Path_9321" data-name="Path 9321" d="M360.5,91.3h3.2l.7.6s-.1,21.3,0,22.1a.947.947,0,0,0,.7.9h15.5c.9,0,1.3-.6,1.3-.9s-.1-1.4-1.7-1.4-1.4-1.1-1.4-1.1-.1-43.5,0-44.2,0-.8,1.3-.8,1.5-.3,1.5-1-1-1.2-1-1.2H364.9c-.5,0-.6.9-.6.9V86.4l-.7.7h-7.2l-.7-.7V65.2s-.1-.9-.6-.9H339.4s-1,.5-1,1.2.2,1,1.5,1,1.2.1,1.3.8,0,44.2,0,44.2.1,1.1-1.4,1.1-1.7,1.1-1.7,1.4.4.9,1.3.9h15.5a.947.947,0,0,0,.7-.9c.1-.8,0-22.1,0-22.1l.7-.6h4.2" fill="#141414"/>
      <path id="Path_9322" data-name="Path 9322" d="M403.6,115.1c-8.8,0-11.4-1.3-14.5-4.2-3-2.9-3.5-8.5-3.7-10.9-.2-2.3-.2-3.9-.2-12.1a52.218,52.218,0,0,1,1.6-14.3c1.4-5.9,3.9-7,7-8.4,3-1.4,10.1-1.5,10.1-1.5l1-.1s6.4.2,9.4,1.6c3.1,1.4,5.6,2.6,7,8.4a52.217,52.217,0,0,1,1.6,14.3c0,8.2,0,9.7-.2,12.1-.2,2.3-.6,7.9-3.7,10.9-3,2.9-5.4,4.2-14.2,4.2Zm.6-1.5c5.3,0,4.5-2.8,4.5-2.8V69.1c0-3.8-3.1-4-4.3-4h-.7c-1.1,0-4.6.2-4.6,4v41.7s-.9,2.8,4.4,2.8Z" fill="#141414"/>
      <path id="Path_9323" data-name="Path 9323" d="M515.4,115.1c-8.8,0-11.4-1.3-14.5-4.2-3-2.9-3.5-8.5-3.7-10.9-.2-2.3-.2-3.9-.2-12.1a52.217,52.217,0,0,1,1.6-14.3c1.4-5.9,3.9-7,7-8.4,3-1.4,10.1-1.5,10.1-1.5l1-.1s6.4.2,9.4,1.6c3.1,1.4,5.6,2.6,7,8.4a52.215,52.215,0,0,1,1.6,14.3c0,8.2,0,9.7-.2,12.1-.2,2.3-.7,7.9-3.7,10.9-3,2.9-5.4,4.2-14.3,4.2Zm.7-1.5c5.2,0,4.5-2.8,4.5-2.8V69.1c0-3.8-3.2-4-4.3-4h-.7c-1.1,0-4.6.2-4.6,4v41.7s-.9,2.8,4.4,2.8Z" fill="#141414"/>
      <path id="Path_9324" data-name="Path 9324" d="M481.6,64.4h17.3s.7.6.7,1.1v5.3s-.1,1.2-1.1,1.2c-1,.1-1.2-.4-1.2-1.4a6.3,6.3,0,0,1,0-1.6h-8.2s-1-.1-1,.8v41.8s-.1,1,1.7,1c1,0,1,.4,1,1.1a.959.959,0,0,1-1.1,1.1H471.9a.959.959,0,0,1-1.1-1.1c0-.7-.1-1.1.9-1.1,1.8,0,1.7-1,1.7-1V69.8c0-.9-1-.8-1-.8h-8.2a6.689,6.689,0,0,1,0,1.6c-.1,1.1-.3,1.6-1.2,1.4-1-.1-1.1-1.2-1.1-1.2V65.5c0-.5.7-1.1.7-1.1Z" fill="#141414"/>
      <path id="Path_9325" data-name="Path 9325" d="M559.3,114.9h11.4V67.2s-.3-.7,1.2-.7,1.5-.9,1.5-1.3a1.326,1.326,0,0,0-1.3-1h-6.5a1.013,1.013,0,0,0-1,1.1c0,.9.3,1.3.8,1.3s1.4-.1,1.5.7c.1,1.1,0,29.1,0,29.1L554.8,67a1.355,1.355,0,0,1,1.2-.5,1.238,1.238,0,0,0,1.4-1.3c0-.8-.5-1-.9-1H538.1s-1,.4-1,1.1,0,1.1.8,1.1,1.7.2,1.7.6v44.9s.3.7-1.2.7-1.5.9-1.5,1.3a1.326,1.326,0,0,0,1.3,1h6.5a1.013,1.013,0,0,0,1-1.1c0-.9-.3-1.3-.8-1.3s-1.4.1-1.5-.7c-.1-1,0-36.8,0-36.8Z" fill="#141414"/>
    </g>
    <path id="Path_9326" data-name="Path 9326" d="M580.7,72.6a3.8,3.8,0,1,1,3.8-3.8A3.674,3.674,0,0,1,580.7,72.6Zm0-6.8a2.74,2.74,0,0,0-2.7,2.9,2.683,2.683,0,0,0,2.7,2.9,2.907,2.907,0,0,0,0-5.8Zm-.7,5h-.9V66.7h1.5c1.1,0,1.7.3,1.7,1.2,0,.8-.4,1-1,1.1l1,1.8h-1l-.9-1.7H580Zm.8-2.4c.4,0,.6-.1.6-.5s-.5-.5-.8-.5H580v1Z" fill="#141414"/>
    <rect id="Rectangle_342" data-name="Rectangle 342" width="344.6" height="3.5" transform="translate(230 49.1)" fill="#141414"/>
    <path id="Path_9327" data-name="Path 9327" d="M277.2,154.8c-.2,0-.3.2-.4.5a9.718,9.718,0,0,1-1.5,2.5,23.909,23.909,0,0,1-2.2,2.3,11.137,11.137,0,0,1-2.4,1.6,22.175,22.175,0,0,1-.3-3.7,100.944,100.944,0,0,1,.9-10.2l.1-1v-.2l2.8-.3,2.9-.3h.5c.7-.1,1-.3.8-.7-.1-.3-.5-.5-1-.6a44.112,44.112,0,0,0-5.4,0h-.3l.1-.2.6-3.6c.3-1.8.8-4,1.4-6.8a3.678,3.678,0,0,0,0-2.1,4.662,4.662,0,0,0-1.6-1.9,3.464,3.464,0,0,0-2-.9,2.5,2.5,0,0,0-1.1.5l-.5.4c-.6.5-1.5,1.1-2.5,2-1.1.9-2.3,1.9-3.6,3.1l-5.3,4.6-6,5.4c-.1,0-.2.1-.4.3h-.3c-1.4.1-3,.2-4.5.2h-3.2a6.8,6.8,0,0,1-1.9-.3q.75,1.35,1.2,2.1a4.5,4.5,0,0,0,.9,1,3.458,3.458,0,0,0,1.2.7,2.954,2.954,0,0,0,1.3.2,5.94,5.94,0,0,0,1.1-.1l1-.1h.2l-.1.1a24.964,24.964,0,0,1-2.3,2.3c-.3.3-.7.7-1.3,1.2-.5.5-1.3,1.2-2.1,2.1-.6.6-1.2,1.2-1.7,1.6a11.09,11.09,0,0,0-1.1,1.1c-5.3,5-7.2,3.9-8.5,5.9-.4.7.4,2.1,1.4,2.9a6.464,6.464,0,0,0,3.5,1.1,3.809,3.809,0,0,0,1.9-.6,18.979,18.979,0,0,0,2.2-2.1c1.1-1.2,7.8-9.1,5.3-6.2-.7.9.8-.7,4.1-5l2.1-2.6,2.1-2.6,3.8-.4,3.8-.4,2.7-.3,2.7-.3-.5,3.3-.5,3.3a22.467,22.467,0,0,0-.3,7.1,3.921,3.921,0,0,0,.4,1.4,8.534,8.534,0,0,0,1.4,2.1,12.026,12.026,0,0,0,2.1,1.9,3.706,3.706,0,0,0,1.9.7,2.334,2.334,0,0,0,1.4-.7,25.044,25.044,0,0,0,5.4-9.7c.1-.5.2-.8.1-1C277.7,154.9,277.5,154.8,277.2,154.8ZM269,135.5c-.3,1.3-.6,2.6-.9,4l-.5,2.6-.6,2.5-3.6.1-3.6.1-2.2.1-2.2.1.1-.2a105.783,105.783,0,0,1,8.9-8.9c1-.9,1.9-1.7,2.7-2.3s1.8-1.2,2.9-1.9C269.6,133,269.3,134.2,269,135.5Z" fill="#141414"/>
    <path id="Path_9328" data-name="Path 9328" d="M345.2,149.9a10.577,10.577,0,0,1,1.5-2.4l1.2-1.5a1.668,1.668,0,0,0,.3-1.3,3.051,3.051,0,0,0-1-1.3,2.979,2.979,0,0,0-1.4-.5,3.187,3.187,0,0,0-1.7.6,29.613,29.613,0,0,0-3.1,2.6l-3.2,2.8a20.592,20.592,0,0,0-1.6,1.5l-2.3,2.3a14.885,14.885,0,0,1,2-3.6l2-2.8a1.393,1.393,0,0,0,.2-1.5,2.56,2.56,0,0,0-1-1.3,2.389,2.389,0,0,0-1.4-.5c-.3,0-.5,0-.6.1a3.73,3.73,0,0,0-.6.8l-.4.8a23.727,23.727,0,0,1-5.7,5.8c-.9.7-5,3.9-7.1,4.8a9.917,9.917,0,0,1-5.7.9,3.229,3.229,0,0,1-1.7-1,1.465,1.465,0,0,1-.2-1.7c.3-.8.8-1.9,1.2-1.8a13.325,13.325,0,0,0,4.4,1.1,5.481,5.481,0,0,0,3.7-.9,8.444,8.444,0,0,0,2.9-2.5c.9-1.3,1.4-2.4,1.1-3.6a2.787,2.787,0,0,0-.7-1.3,5.373,5.373,0,0,0-1.6-1,6.517,6.517,0,0,0-1.8-.2,7.654,7.654,0,0,0-3.4.8,20.178,20.178,0,0,0-4.3,2.5,13.074,13.074,0,0,0-3.6,3.9,5.16,5.16,0,0,0-1.1.2,14.477,14.477,0,0,0-6.1,2.4,30.741,30.741,0,0,1,3.8-7.1,1.063,1.063,0,0,0,.1-1.2,3.051,3.051,0,0,0-1-1.3,2.389,2.389,0,0,0-1.4-.5,2.772,2.772,0,0,0-1.2.5c-.8.6-2.1,1.6-3.8,3.1l-3.3,2.8q-1.8,1.65-3.3,3.3c.2-.5.5-1.2.8-1.9a6.656,6.656,0,0,1,.6-1.2c.2-.3.4-.7.6-1,.2-.4.8-1.3,1.6-2.6a1.9,1.9,0,0,0,.4-1.5,3.126,3.126,0,0,0-.9-1.1,2.654,2.654,0,0,0-1.4-.5,2.916,2.916,0,0,0-1.5.6c-1.3.9-3.1,2.4-5.4,4.4a61.739,61.739,0,0,0-5.3,5c.8-1.7,1.5-2.9,2.2-4.1l.5-1a11.882,11.882,0,0,0,.7-2.3,3.929,3.929,0,0,0,.1-2,2.515,2.515,0,0,0-.7-1.2,2.932,2.932,0,0,0-.8-.4c-.3-.1-1-.3-1.1.2-.1.3,2.1.3.4,2.8l-2.4,3a29.513,29.513,0,0,0-3.4,5.8c-.8,1.8-1,3.1-.7,3.8a4.234,4.234,0,0,0,1.1,1.3,2.916,2.916,0,0,0,1.5.6c.3,0,.5,0,.6-.1a3.774,3.774,0,0,0,.5-.8,30.947,30.947,0,0,1,3.9-6,14.962,14.962,0,0,1,4.6-3.7,1.433,1.433,0,0,1,.7-.2.367.367,0,0,1,.3.1.756.756,0,0,1-.1.4l-.2.3-.2.3a20.491,20.491,0,0,0-2.5,6.8,2.219,2.219,0,0,0,.1.9,4.029,4.029,0,0,0,1.3,1.4,2.634,2.634,0,0,0,1.5.6.938.938,0,0,0,.8-.6,18.815,18.815,0,0,1,3.7-6,14.816,14.816,0,0,1,4.9-4,2.944,2.944,0,0,1,.9-.3c.2,0,.3.1.3.2a.367.367,0,0,1-.1.3l-.2.3a22.035,22.035,0,0,0-1.4,3,17.128,17.128,0,0,0-1,3,3.678,3.678,0,0,0,0,2.1,3.559,3.559,0,0,0,1.2,1.3,3.187,3.187,0,0,0,1.7.6.749.749,0,0,0,.5-.1,2.185,2.185,0,0,0,.3-.5c0-.1.1-.2.2-.4a4.872,4.872,0,0,0,.3-.7,10.835,10.835,0,0,1,2.5-3.8,9.247,9.247,0,0,1,2.9-1.7,9.827,9.827,0,0,1,1.6-.5,4.975,4.975,0,0,0,2.4,6.9,10.73,10.73,0,0,0,5.4.1,12.1,12.1,0,0,0,5.6-3c1.3-1,3.8-3.3,4.7-4.1.8-.6,1.9-1.9,3.1-2.8a46.789,46.789,0,0,0-3.5,7.1,2,2,0,0,0-.1,1.5,4.561,4.561,0,0,0,1.2,1.3,2.692,2.692,0,0,0,1.6.7c.4,0,.8-.4,1.3-1.3a24.543,24.543,0,0,1,5-6.9,16.349,16.349,0,0,1,4.8-3,2.634,2.634,0,0,0-.5,1.8,2.982,2.982,0,0,0,1.4,1.3,7.2,7.2,0,0,0,2.6.8,2.507,2.507,0,0,1-.4-.7C345,151,345,150.5,345.2,149.9Zm-25-2.7a9.215,9.215,0,0,1,3.4-1.1.6.6,0,0,1,.6.3,2.321,2.321,0,0,1-.5,1.7,6.252,6.252,0,0,1-3.3,3.1c-1.8.6-4.3.3-5-.3A31.864,31.864,0,0,1,320.2,147.2Z" fill="#141414"/>
    <path id="Path_9329" data-name="Path 9329" d="M573.5,144.4a3.051,3.051,0,0,0-1-1.3,2.979,2.979,0,0,0-1.4-.5,3.187,3.187,0,0,0-1.7.6,29.614,29.614,0,0,0-3.1,2.6l-3.2,2.8a20.586,20.586,0,0,0-1.6,1.5l-2.3,2.3a14.883,14.883,0,0,1,2-3.6l2-2.8a1.393,1.393,0,0,0,.2-1.5,3.249,3.249,0,0,0-1-1.3,2.389,2.389,0,0,0-1.4-.5c-.3,0-.5,0-.6.1a3.729,3.729,0,0,0-.6.8l-.4.8a23.727,23.727,0,0,1-5.7,5.8c-.9.7-5,3.9-7.1,4.8a9.917,9.917,0,0,1-5.7.9,3.229,3.229,0,0,1-1.7-1,1.465,1.465,0,0,1-.2-1.7c.3-.8.8-1.9,1.2-1.8a13.325,13.325,0,0,0,4.4,1.1,5.481,5.481,0,0,0,3.7-.9,8.445,8.445,0,0,0,2.9-2.5c.9-1.3,1.4-2.4,1.1-3.6a2.786,2.786,0,0,0-.7-1.3,5.373,5.373,0,0,0-1.6-1,6.517,6.517,0,0,0-1.8-.2,9.385,9.385,0,0,0-3.4.8,20.179,20.179,0,0,0-4.3,2.5A13.474,13.474,0,0,0,537,150a7.386,7.386,0,0,0-1.2.2,19.982,19.982,0,0,0-2.1.4,22.006,22.006,0,0,0-4.9,2,21.581,21.581,0,0,1,1-2.5c.4-.7.9-1.6,1.6-2.6,1.8-2.7,5.9-6.1,7.7-8l3.9-4.4c.5-.5,1.1-1.3.8-1.8a1.56,1.56,0,0,0-1.5-.8,3.746,3.746,0,0,0-1.7,1.1c-1.9,1.6-4.2,3.7-4.2,3.7-1.6,1.6-6.3,5.8-7.3,7.2l-.1.1a3.159,3.159,0,0,0-1.4-1.4,4.648,4.648,0,0,0-2.1-.5,6.723,6.723,0,0,0-1.8.3,21.936,21.936,0,0,0-4.6,2.3,26.158,26.158,0,0,0-3.4,2.4,37.256,37.256,0,0,0-4.2,2.1c-1.4.7-4,2-5.7,2.8a20.517,20.517,0,0,1,2.6-5.1,19.5,19.5,0,0,1,1.8-2.5c.7-.9,1.3-1.7,2-2.5a17.157,17.157,0,0,1,1.7-1.9l2.7-2.8c.5-.5,1.2-1.1,1-1.6-.1-.2-.2-.3-.3-.5a1.277,1.277,0,0,0-1.1-.4,2.4,2.4,0,0,0-1.3.7c-.7.6-3.2,2.4-9.1,9.2a14.308,14.308,0,0,0-1.1,1.5,61.349,61.349,0,0,1-5.2,3.7c-2.7,1.8-5.1,3.5-5,3.3a30.949,30.949,0,0,1,2.6-5.5l.2-.3a21.942,21.942,0,0,0,1.3-1.9,2.058,2.058,0,0,0,.5-.9,2.814,2.814,0,0,0-.1-.8,8.343,8.343,0,0,0-.8-1.2,2.108,2.108,0,0,0-1.1-.5,1.365,1.365,0,0,0-1,.6l-2,3.1c-1.3.9-3.4,2.5-5.5,4a37,37,0,0,1-5,3.3s-.7.6.1-.9a38.69,38.69,0,0,1,2.2-4c.1-.2.3-.4.4-.6a3.04,3.04,0,0,1,.5-.7,5.922,5.922,0,0,1,.4-.6,14.955,14.955,0,0,1,1-1.5,1.1,1.1,0,0,0,0-.8,2.411,2.411,0,0,0-1.1-1.2,2.9,2.9,0,0,0-1.6-.6c-.4,0-.7.2-1,.7-.9,1.3-1.5,2.3-2,3s-1.1,1.5-1.8,2.3-1.2,1.4-1.6,1.8-1,1-1.9,1.8q-.75.6-1.8,1.5a6.946,6.946,0,0,1-1.8,1.2,1.421,1.421,0,0,1-.6.2c-.2,0-.4-.1-.4-.3a4.856,4.856,0,0,1,.6-2.3,28.061,28.061,0,0,1,2.3-3.9c.5-.7.9-1.4,1.3-2a10.379,10.379,0,0,0,.7-1.2,1.3,1.3,0,0,0,0-1,2.335,2.335,0,0,0-1-1.2,1.95,1.95,0,0,0-1.3-.5,1.546,1.546,0,0,0-1.2.7l-2.4,4.2a18.622,18.622,0,0,0-1.9,3.3,13.521,13.521,0,0,0-3.4-1.1,4.526,4.526,0,0,0-1.3-4.5c-3.4-3.5-9.4-2.9-9.4-2.9,10.9-5,3.9-11-2.7-11.2-12.3-.3-19.9,9-19.9,9,20-13.8,22.8-4.1,22.8-4.1.6,1.6-.8,4.2-4.1,5.5a26.687,26.687,0,0,1-3.4,1.1c-.8.2-2.6.6-3,.7l-3.6.6h-.2l.1-.1a3.491,3.491,0,0,0,.6-.9,6.781,6.781,0,0,0,.6-.9,28.258,28.258,0,0,1,2-2.6,1.5,1.5,0,0,0,.4-1.3c-.1-.4-.7-.9-1.8-1.4a2.385,2.385,0,0,0-1.2-.4c-.4,0-.8.3-1.3.8a53.5,53.5,0,0,0-3.7,5c-1,1.6-2,3.2-2.9,4.8a48.27,48.27,0,0,0-2.3,4.5l-.1.2A20.877,20.877,0,0,0,426,154c-1.6,1-2.2,2.2-1.6,3.6a10.944,10.944,0,0,0,2.1,3.2,15.837,15.837,0,0,0,3.2,2.7,9.277,9.277,0,0,0,4.4,1.3,50.23,50.23,0,0,0,15-2.8,64.311,64.311,0,0,0,7.3-2.7,26.487,26.487,0,0,0,5.2-3.1,18.567,18.567,0,0,0,2.9-2.7,5.585,5.585,0,0,0,1.5-2.4h.2a21.254,21.254,0,0,1,2.8.6h.1a9.3,9.3,0,0,1-.5,1,16.077,16.077,0,0,0-.9,2.5,1.9,1.9,0,0,0,.1,1.3,5.974,5.974,0,0,0,1.5,1.8,3.223,3.223,0,0,0,2,.9,2.384,2.384,0,0,0,1.4-.6,41.621,41.621,0,0,0,4.8-4.7l2.3-2.5a5.99,5.99,0,0,1,.7-.6,24.419,24.419,0,0,0-1.6,4.1,4.652,4.652,0,0,0-.3,2.4,8.317,8.317,0,0,0,1.4,1.4,2.953,2.953,0,0,0,1.6.7.764.764,0,0,0,.5-.2,3.609,3.609,0,0,0,.9-.9c1-1.3,1.8-2.2,2.1-2.6a13.274,13.274,0,0,1,1.9-2.1,33.7,33.7,0,0,1,5.3-4.4c-.8,1.4-1.3,2.4-1.7,3.2a16,16,0,0,0-1.1,3.5,3.64,3.64,0,0,0,0,1.5,3.556,3.556,0,0,0,1.4,1.3,4.034,4.034,0,0,0,1.6.7.764.764,0,0,0,.5-.2,7,7,0,0,0,.9-.9c1-1.3,1.8-2.2,2.1-2.6a21.539,21.539,0,0,1,1.9-2.2,27.074,27.074,0,0,1,5.1-4.2c-.2.5-.5,1-.7,1.4a21.148,21.148,0,0,0-1.9,5.1,2.532,2.532,0,0,0,0,1.5,2.973,2.973,0,0,0,1.4,1.3,4.035,4.035,0,0,0,1.6.7.764.764,0,0,0,.5-.2,3.051,3.051,0,0,0,.7-.8c1-1.3,1.6-2.2,1.9-2.6a32.506,32.506,0,0,1,2.7-2.6c.4-.3,1.4-1,2.7-1.8q-1.95,2.55-1.2,4.5a6.6,6.6,0,0,0,1.7,2.4,3.778,3.778,0,0,0,2.2,1.1,2.28,2.28,0,0,0,1.1-.3,13.566,13.566,0,0,0,1.8-1.2,47.492,47.492,0,0,0,7.7-7.4l.2-.2-.1.2a17.605,17.605,0,0,0-2,5.4,3.641,3.641,0,0,0,0,1.5,2.973,2.973,0,0,0,1.4,1.3,4.035,4.035,0,0,0,1.6.7.764.764,0,0,0,.5-.2,6.378,6.378,0,0,0,.6-.9,33.8,33.8,0,0,1,2.1-3.3,12.017,12.017,0,0,1,2-1.8,13.236,13.236,0,0,1,4.5-1.8,5.331,5.331,0,0,0-.4,4.2,5.211,5.211,0,0,0,2.7,2.9,10.731,10.731,0,0,0,5.4.1,12.1,12.1,0,0,0,5.6-3c1.3-1,3.8-3.3,4.7-4.1.8-.6,1.9-1.9,3.1-2.8a46.791,46.791,0,0,0-3.5,7.1,2,2,0,0,0-.1,1.5,4.56,4.56,0,0,0,1.2,1.3,2.692,2.692,0,0,0,1.6.7c.4,0,.8-.4,1.3-1.3a24.545,24.545,0,0,1,5-6.9,18.917,18.917,0,0,1,4.8-3.1,2.634,2.634,0,0,0-.5,1.8,2.981,2.981,0,0,0,1.4,1.3,7.2,7.2,0,0,0,2.6.8,2.506,2.506,0,0,1-.4-.7,2.2,2.2,0,0,1,0-1.6,10.578,10.578,0,0,1,1.5-2.4l1.2-1.5A1.383,1.383,0,0,0,573.5,144.4Zm-28,2.4a9.057,9.057,0,0,1,3.5-1.1.6.6,0,0,1,.6.3,2.321,2.321,0,0,1-.5,1.7,6.252,6.252,0,0,1-3.3,3.1c-1.8.6-4.3.3-5-.3A24.769,24.769,0,0,1,545.5,146.8Zm-96.1,10.5a65.849,65.849,0,0,1-9.1,2.6,41.665,41.665,0,0,1-7.9,1.1c-2.9,0-4.5-.6-4.9-1.7a2.007,2.007,0,0,1,.5-2,6.755,6.755,0,0,1,2.6-1.9v.2a4.395,4.395,0,0,0,.2,2.8,3.33,3.33,0,0,0,1.4,1.7l.3-.5,2.8-5.2.1-.2.1-.2a50.984,50.984,0,0,1,7.1-2,68.659,68.659,0,0,1,8.3-1.3,86.516,86.516,0,0,1,8.8-.5h1.4C458.7,153,454.8,155.3,449.4,157.3Zm12.4-8.4h-.3c-1.8-.1-3.6-.2-5.6-.2-2.2,0-4.4.1-6.5.2a57.3,57.3,0,0,0-6.1.6c-2,.3-3.8.6-5.5,1l-.3.1-.3.1.1-.2.7-1.2c.2-.3.5-.8.9-1.4l.9-1.4.3-.1.5-.2a30.756,30.756,0,0,1,4.1-1,50.588,50.588,0,0,1,5.2-.8,37.47,37.47,0,0,1,4.4-.3,15.569,15.569,0,0,1,5.2.7c1.4.5,2.2,1.1,2.5,1.9A2.9,2.9,0,0,1,461.8,148.9Zm64.4-2.3a8.036,8.036,0,0,1-2,2.7,21.479,21.479,0,0,1-6.6,4.5,8.313,8.313,0,0,1-2.5.8c-.3,0-.5-.1-.5-.3a1.759,1.759,0,0,1,.1-.6,11.132,11.132,0,0,1,2.7-3.4,18.048,18.048,0,0,1,4.3-2.9,16.474,16.474,0,0,1,2.2-.9,6.512,6.512,0,0,1,1.8-.4.588.588,0,0,1,.5.2A.188.188,0,0,1,526.2,146.6Z" fill="#141414"/>
    <path id="Path_9330" data-name="Path 9330" d="M397.3,150.2a13.44,13.44,0,0,0-2.2.3,19.131,19.131,0,0,0-5.7,1.8,11.736,11.736,0,0,1,1-2l1.1-1.9c.2-.4.3-.7.1-1a1.419,1.419,0,0,0-.8-.7,1.86,1.86,0,0,0,.4-1.8,2.365,2.365,0,0,0-1.2-1.4,3.606,3.606,0,0,0-2-.6,12.39,12.39,0,0,0-4.7,1.3,23.48,23.48,0,0,0-5.4,3,23.9,23.9,0,0,0-3.3,2.7,16.585,16.585,0,0,1-7.2,4.9c-1.2.4-4.6,1.4-5.3-.2-.3-.6.1-1.4.7-2.7,2.1-4.6,6.8-5.9,7.2-6.1.1,0,.4-.1.5,0,.2.2-1.1,1.7-.8,2.3a9.057,9.057,0,0,1,2.7-2.5c.6-.4.9-.8.7-1.2a2.4,2.4,0,0,0-1-1,2.934,2.934,0,0,0-1.6-.4,6.134,6.134,0,0,0-1.6.3,16.866,16.866,0,0,0-2.7,1.1,23.569,23.569,0,0,0-2.5,1.5,14.7,14.7,0,0,0-1.3,1c-1.1.7-3.5,2-6.1,3.9a36.994,36.994,0,0,1-5,3.3,57.6,57.6,0,0,1,2.6-5.5l.2-.3a21.944,21.944,0,0,0,1.3-1.9,2.057,2.057,0,0,0,.5-.9,2.814,2.814,0,0,0-.1-.8,3.449,3.449,0,0,0-.9-1.2,2.108,2.108,0,0,0-1.1-.5,1.365,1.365,0,0,0-1,.6l-2.6,4.2-.1.1c-1.2,2.1-2,3.6-2.5,4.6a16,16,0,0,0-1.1,3.5,3.64,3.64,0,0,0,0,1.5,3.556,3.556,0,0,0,1.4,1.3,4.035,4.035,0,0,0,1.6.7.764.764,0,0,0,.5-.2,7,7,0,0,0,.9-.9c1-1.3,1.8-2.2,2.1-2.6a13.274,13.274,0,0,1,1.9-2.1,28.686,28.686,0,0,1,4.8-4,8.105,8.105,0,0,0-1,1.8,4.789,4.789,0,0,0-.2,3.5,5.879,5.879,0,0,0,2.7,3.3,6.96,6.96,0,0,0,4.7.5,10.654,10.654,0,0,0,6-3.4,1.445,1.445,0,0,0,.2.7,5.4,5.4,0,0,0,1.8,2.3,4,4,0,0,0,2.3,1.1,4.534,4.534,0,0,0,2.3-1.2,61.923,61.923,0,0,0,7.1-6.8l.6-.6-.3.7q-1.05,2.55-1.5,3.9a3.827,3.827,0,0,0-.2,2,3.68,3.68,0,0,0,1.7,1.5,3.392,3.392,0,0,0,1.4.5.845.845,0,0,0,.6-.2,1.628,1.628,0,0,0,.3-.6,11.139,11.139,0,0,1,1.4-3.1,7.561,7.561,0,0,1,1.9-2.1,9.174,9.174,0,0,1,2.6-1.4,16.937,16.937,0,0,1,3.4-.8q1.05-.15.9-.6A1.823,1.823,0,0,0,397.3,150.2Zm-9.9-3a9.825,9.825,0,0,1-2,2.7,19.593,19.593,0,0,1-6.6,4.4,9.258,9.258,0,0,1-2.5.8c-.3,0-.5-.1-.5-.3-.1-.3.2-.8.8-1.7a13.75,13.75,0,0,1,1.7-1.9,21.1,21.1,0,0,1,2.3-1.9,14.917,14.917,0,0,1,2.4-1.4,14.723,14.723,0,0,1,2.2-1,5.352,5.352,0,0,1,1.8-.4.588.588,0,0,1,.5.2A.9.9,0,0,0,387.4,147.2Z" fill="#141414"/>
    <path id="Path_9331" data-name="Path 9331" d="M404.5,139.5a2.654,2.654,0,0,0,.5-1.4,1.284,1.284,0,0,0-.4-1,2.22,2.22,0,0,0-1.1-.5,4.489,4.489,0,0,0-2.4.9c-1.3.9-1.8,2.7-3.3,4.5-1.3,1.5-2.8,2.2-2.8,2.6a.472.472,0,0,0,.5.5,8.541,8.541,0,0,0,3.1-1.3,27.772,27.772,0,0,0,4-2.6A19.19,19.19,0,0,0,404.5,139.5Z" fill="#141414"/>
    <path id="Path_9332" data-name="Path 9332" d="M413.7,145a1.689,1.689,0,0,0-1-.3,19.387,19.387,0,0,0-4.2.8,33.854,33.854,0,0,0-4.1,1.5,13.006,13.006,0,0,0-3,1.9,1.368,1.368,0,0,0-.5,1.5,2.218,2.218,0,0,0,1.5,1.3,13.626,13.626,0,0,0,3.7.3,24.518,24.518,0,0,1,3.2.2c-1.3.5-2.3.8-2.9,1.1-2,.8-3.9,1.7-5.6,2.5a8.982,8.982,0,0,0-1.9,1.2.8.8,0,0,0-.2.9,1.89,1.89,0,0,0,1,1,1.854,1.854,0,0,0,1,.4.864.864,0,0,0,.6-.3,59.293,59.293,0,0,1,5.2-3c2.2-1.1,3.4-1.7,5.4-2.5,0,0,1.6-.5.5-1.6a3.581,3.581,0,0,0-1.1-.6c-.5-.1-1.4-.2-2.6-.3a13.666,13.666,0,0,1-1.9-.2,6.117,6.117,0,0,1-1.4-.3,1,1,0,0,1-.5-.4c-.1-.2,0-.3.3-.5a9.315,9.315,0,0,1,4.5-1.9l3-.6c1.2-.2,1.4-.5,1.6-.7a.581.581,0,0,0,0-.7C414.3,145.5,414,145.2,413.7,145Z" fill="#141414"/>
    <path id="Path_9333" data-name="Path 9333" d="M500.8,140.1a1.666,1.666,0,0,0,1.1.4,1.6,1.6,0,0,0,.8-.3,15.75,15.75,0,0,0,1.3-1c.5-.4.8-.7,1.1-.9.5-.4.7-.8.5-1.1a2.591,2.591,0,0,0-1-1.1,2.654,2.654,0,0,0-1.4-.5c-.5,0-1.2.5-2.1,1.6-.8,1-1.1,1.7-.9,2.2C500.2,139.6,500.5,139.9,500.8,140.1Z" fill="#141414"/>
    <path id="Path_9334" data-name="Path 9334" d="M357.6,140.6a2.6,2.6,0,0,0,1,.4,1.6,1.6,0,0,0,.8-.3,15.743,15.743,0,0,0,1.3-1c.5-.4.8-.7,1.1-.9.5-.4.7-.8.5-1.1a2.591,2.591,0,0,0-1-1.1,2.654,2.654,0,0,0-1.4-.5c-.5,0-1.2.5-2.1,1.6-.8,1-1.1,1.7-.9,2.2A2.233,2.233,0,0,0,357.6,140.6Z" fill="#141414"/>
  </g>
</svg>
