<svg xmlns="http://www.w3.org/2000/svg" width="80.769" height="75" viewBox="0 0 80.769 75">
  <g id="r" transform="translate(-2 -3)">
    <g id="Group_514" data-name="Group 514" transform="translate(2 3)">
      <path id="Path_213" data-name="Path 213" d="M12.016,38.874a2.683,2.683,0,0,0,.021.434h5.75l2.53-16.587A2.782,2.782,0,0,0,20.281,22H14.589Z" transform="translate(16.863 32.808)" fill="#4a44e2"/>
      <path id="Path_214" data-name="Path 214" d="M22.847,22H17.155a2.8,2.8,0,0,0-.035.721l2.53,16.587H25.4a2.75,2.75,0,0,0,.021-.434Z" transform="translate(26.47 32.808)" fill="#4a44e2"/>
      <path id="Path_215" data-name="Path 215" d="M74.115,60.692H10.654A8.663,8.663,0,0,1,2,52.038V11.654A8.663,8.663,0,0,1,10.654,3H74.115a8.663,8.663,0,0,1,8.654,8.654V52.038A8.663,8.663,0,0,1,74.115,60.692ZM10.654,8.769a2.887,2.887,0,0,0-2.885,2.885V52.038a2.887,2.887,0,0,0,2.885,2.885H74.115A2.887,2.887,0,0,0,77,52.038V11.654a2.887,2.887,0,0,0-2.885-2.885Z" transform="translate(-2 -3)" fill="#4a44e2"/>
      <path id="Path_216" data-name="Path 216" d="M46.5,32.769H11.885a2.885,2.885,0,0,1,0-5.769H46.5a2.885,2.885,0,0,1,0,5.769Z" transform="translate(11.192 42.231)" fill="#4a44e2"/>
      <path id="Path_217" data-name="Path 217" d="M45.731,18.769H23.848l.845-.845a2.884,2.884,0,0,0-4.079-4.079l-5.769,5.769a2.884,2.884,0,0,0,0,4.079l5.769,5.769a2.884,2.884,0,0,0,4.079-4.079l-.845-.845H45.73a2.885,2.885,0,1,0,0-5.769Z" transform="translate(20.615 15.846)" fill="#4a44e2"/>
      <path id="Path_218" data-name="Path 218" d="M47.77,13.614,42,7.845a2.884,2.884,0,0,0-4.079,4.079l.845.845H16.885a2.885,2.885,0,0,0,0,5.769H38.767l-.845.845A2.884,2.884,0,1,0,42,23.463l5.769-5.769a2.884,2.884,0,0,0,0-4.079Z" transform="translate(20.615 4.539)" fill="#4a44e2"/>
      <path id="Path_219" data-name="Path 219" d="M23.308,30.077a8.663,8.663,0,0,0-8.654-8.654,2.885,2.885,0,1,1,2.5-4.316A2.885,2.885,0,0,0,22.136,14.2a8.583,8.583,0,0,0-4.6-3.762V9.885a2.885,2.885,0,1,0-5.769,0v.532a8.632,8.632,0,0,0,2.885,16.776,2.885,2.885,0,1,1-2.5,4.316,2.885,2.885,0,0,0-4.983,2.907,8.583,8.583,0,0,0,4.6,3.762v.554a2.885,2.885,0,1,0,5.769,0V38.2A8.64,8.64,0,0,0,23.308,30.077Z" transform="translate(5.538 4.538)" fill="#4a44e2"/>
    </g>
  </g>
</svg>
