<svg xmlns="http://www.w3.org/2000/svg" width="70.348" height="75" viewBox="0 0 70.348 75">
  <g id="Diamond" transform="translate(-1)">
    <path id="Path_248" data-name="Path 248" d="M71.348,26.778c0-.868,0-.657-9.685-17.587l-.117-.117a1.782,1.782,0,0,0-.492-.539h0a2.345,2.345,0,0,0-1.43-.516c-50.252,0-47.344-.211-48.259.446s-.211,0-10.06,17.141a3.1,3.1,0,0,0-.281,1.008L1,26.778a3.588,3.588,0,0,0,.211.938c.281.657,33.111,35.666,33.368,35.924a2.345,2.345,0,0,0,2.345.492c.727-.3-.3.68,18.1-19.041A2.345,2.345,0,1,0,51.6,41.9L41.8,52.572l7.785-23.449h14.07l-5.675,6.1A2.355,2.355,0,1,0,61.359,38.5C71.207,27.857,71.348,28.091,71.348,26.778ZM12.936,14.7l7.035,9.731H7.378Zm27.788-1.993H55.074L47.9,22.745ZM43.35,24.433H29L36.174,14.4Zm-18.9-1.688L17.274,12.708H31.625Zm-1.688,6.378,7.785,23.449L8.738,29.123Zm21.878,0L36.174,54.542,27.709,29.123ZM59.412,14.7l5.557,9.731H52.448Z" transform="translate(0 10.741)" fill="#f4f4f4"/>
    <path id="Path_249" data-name="Path 249" d="M17.345,11.725A2.345,2.345,0,0,1,15,9.38V2.345a2.345,2.345,0,1,1,4.69,0V9.38A2.345,2.345,0,0,1,17.345,11.725Z" transform="translate(18.829)" fill="#f4f4f4"/>
    <path id="Path_250" data-name="Path 250" d="M14.04,11.385c-1.266,0-1.337-.352-6.355-5.37a2.355,2.355,0,0,1,3.33-3.33l4.69,4.69a2.345,2.345,0,0,1-1.665,4.01Z" transform="translate(8.064 2.684)" fill="#f4f4f4"/>
    <path id="Path_251" data-name="Path 251" d="M23.353,11.385a2.345,2.345,0,0,1-1.665-4.01l4.69-4.69a2.355,2.355,0,0,1,3.33,3.33C24.6,11.127,24.619,11.385,23.353,11.385Z" transform="translate(26.891 2.684)" fill="#f4f4f4"/>
  </g>
</svg>
