<svg xmlns="http://www.w3.org/2000/svg" width="105" height="75" viewBox="0 0 105 75">
  <g id="m" transform="translate(-2 -6)">
    <g id="Group_399" data-name="Group 399" transform="translate(2 6)">
      <path id="Path_156" data-name="Path 156" d="M13.25,16.5H5.75a3.75,3.75,0,0,1,0-7.5h7.5a3.75,3.75,0,0,1,0,7.5Z" transform="translate(-2 2.25)" fill="#f4f4f4"/>
      <path id="Path_157" data-name="Path 157" d="M30.3,10.323A3.694,3.694,0,0,0,27.5,9H11.75a3.75,3.75,0,0,0,0,7.5H24.941A33.888,33.888,0,0,1,30.3,10.323Z" transform="translate(14.5 2.25)" fill="#f4f4f4"/>
      <path id="Path_158" data-name="Path 158" d="M37.633,13.213A3.644,3.644,0,0,0,36.576,13H5.75a3.75,3.75,0,0,0,0,7.5H35.97a33.508,33.508,0,0,1,1.663-7.287Z" transform="translate(-2 13.25)" fill="#f4f4f4"/>
      <path id="Path_159" data-name="Path 159" d="M24.97,17H9.75a3.75,3.75,0,0,0,0,7.5H25.576a3.647,3.647,0,0,0,1.057-.213A33.486,33.486,0,0,1,24.97,17Z" transform="translate(9 24.25)" fill="#f4f4f4"/>
      <path id="Path_160" data-name="Path 160" d="M35.941,21H7.75a3.75,3.75,0,0,0,0,7.5H38.5a3.694,3.694,0,0,0,2.8-1.323A33.9,33.9,0,0,1,35.941,21Z" transform="translate(3.5 35.25)" fill="#f4f4f4"/>
      <path id="Path_161" data-name="Path 161" d="M47.5,81A37.5,37.5,0,1,1,85,43.5,37.542,37.542,0,0,1,47.5,81Zm0-67.5a30,30,0,1,0,30,30A30.035,30.035,0,0,0,47.5,13.5Z" transform="translate(20 -6)" fill="#f4f4f4"/>
      <path id="Path_162" data-name="Path 162" d="M39.5,40A11.262,11.262,0,0,0,28.25,28.75,3.75,3.75,0,1,1,31.5,23.14a3.75,3.75,0,1,0,6.479-3.779A11.142,11.142,0,0,0,32,14.469V13.75a3.75,3.75,0,0,0-7.5,0v.691A11.222,11.222,0,0,0,28.25,36.25,3.75,3.75,0,1,1,25,41.86a3.75,3.75,0,1,0-6.479,3.779A11.142,11.142,0,0,0,24.5,50.531v.719a3.75,3.75,0,0,0,7.5,0v-.691A11.231,11.231,0,0,0,39.5,40Z" transform="translate(39.25 5)" fill="#f4f4f4"/>
    </g>
  </g>
</svg>
