<svg xmlns="http://www.w3.org/2000/svg" width="195.695" height="38.535" viewBox="0 0 195.695 38.535">
  <path id="Dropbox__service_-Black-Logo.wine" data-name="Dropbox_(service)-Black-Logo.wine" d="M22.71,7.248,11.355,14.5,22.71,21.744,11.355,28.992,0,21.684l11.355-7.248L0,7.248,11.355,0ZM11.295,31.287,22.65,24.039l11.355,7.248L22.65,38.535Zm11.416-9.6,11.355-7.248L22.71,7.248,34.005,0,45.36,7.248,34.005,14.5,45.36,21.744,34.005,28.992ZM54.239,7.248H63.42c5.859,0,10.691,3.382,10.691,11.114v1.631c0,7.792-4.53,11.295-10.51,11.295H54.239ZM59.373,11.6V26.878H63.3c3.322,0,5.557-2.174,5.557-7.006V18.6c0-4.832-2.356-7.006-5.738-7.006Zm17.456.242h4.107l.664,4.53c.785-3.08,2.778-4.711,6.4-4.711h1.268v5.194H87.157c-4.168,0-5.194,1.45-5.194,5.557v8.939H76.889V11.838ZM90.3,21.986v-.544c0-6.523,4.168-10.087,9.845-10.087,5.8,0,9.845,3.564,9.845,10.087v.544c0,6.4-3.926,9.845-9.845,9.845C93.862,31.77,90.3,28.388,90.3,21.986Zm14.5-.06v-.483c0-3.624-1.812-5.8-4.711-5.8-2.839,0-4.711,1.993-4.711,5.8v.483c0,3.5,1.812,5.5,4.711,5.5C102.982,27.361,104.794,25.428,104.794,21.925Zm7.852-10.087h4.228l.483,3.684a6.565,6.565,0,0,1,6.4-4.168c4.953,0,8.214,3.564,8.214,10.147v.544c0,6.4-3.624,9.785-8.214,9.785-3.08,0-5.194-1.389-6.221-3.624v9.845h-4.953ZM126.84,21.925V21.5c0-3.866-1.993-5.8-4.651-5.8-2.839,0-4.711,2.174-4.711,5.8v.362c0,3.443,1.812,5.617,4.651,5.617,2.9-.06,4.711-1.933,4.711-5.557Zm12.624,5.8-.423,3.564h-4.349V5.315h4.953v9.966a6.379,6.379,0,0,1,6.342-3.926c4.651.06,8.094,3.262,8.094,9.724v.6c0,6.463-3.262,10.147-8.214,10.147-3.262-.06-5.376-1.57-6.4-4.107Zm9.422-6.04V21.2c0-3.564-1.933-5.557-4.651-5.557-2.778,0-4.711,2.235-4.711,5.617v.423c0,3.624,1.872,5.738,4.651,5.738C147.134,27.422,148.886,25.549,148.886,21.684Zm7.369.3v-.544c0-6.523,4.168-10.087,9.845-10.087,5.8,0,9.845,3.564,9.845,10.087v.544c0,6.4-3.986,9.845-9.845,9.845C159.818,31.77,156.255,28.388,156.255,21.986Zm14.556-.06v-.483c0-3.624-1.812-5.8-4.711-5.8-2.839,0-4.711,1.993-4.711,5.8v.483c0,3.5,1.812,5.5,4.711,5.5C169,27.361,170.811,25.428,170.811,21.925Zm11.778-.725-6.825-9.362h5.859l3.926,5.859,3.986-5.859h5.8l-6.946,9.3L195.7,31.287h-5.738l-4.47-6.463-4.349,6.463h-5.98Z"/>
</svg>
