<svg xmlns="http://www.w3.org/2000/svg" width="75" height="75.002" viewBox="0 0 75 75.002">
  <g id="b" transform="translate(-2 -2)">
    <g id="Group_1291" data-name="Group 1291" transform="translate(2 2)">
      <path id="Path_8999" data-name="Path 8999" d="M37.822,43.429H5.678a2.679,2.679,0,0,1-2.4-3.877l8.036-16.072a2.678,2.678,0,0,1,2.4-1.48H29.786a2.678,2.678,0,0,1,2.4,1.48l8.036,16.072a2.679,2.679,0,0,1-2.4,3.877ZM10.013,38.072H33.487L28.13,27.357H15.37Z" transform="translate(-0.321 31.572)" fill="#f4f4f4"/>
      <path id="Path_9000" data-name="Path 9000" d="M49.822,43.429H17.678a2.679,2.679,0,0,1-2.4-3.877l8.036-16.072a2.678,2.678,0,0,1,2.4-1.48H41.786a2.678,2.678,0,0,1,2.4,1.48l8.036,16.072a2.679,2.679,0,0,1-2.4,3.877ZM22.013,38.072H45.488L40.13,27.357H27.37Z" transform="translate(19.822 31.572)" fill="#f4f4f4"/>
      <path id="Path_9001" data-name="Path 9001" d="M43.822,37.429H11.678a2.679,2.679,0,0,1-2.4-3.876l8.036-16.072a2.678,2.678,0,0,1,2.4-1.48H35.786a2.678,2.678,0,0,1,2.4,1.48l8.036,16.072a2.679,2.679,0,0,1-2.4,3.876ZM16.013,32.072H39.488L34.13,21.357H21.37Z" transform="translate(9.751 21.5)" fill="#f4f4f4"/>
      <path id="Path_9002" data-name="Path 9002" d="M15.393,34.722a2.677,2.677,0,0,1-2.341-1.377L9.6,27.126,3.377,23.67a2.678,2.678,0,0,1,0-4.682L9.6,15.533l3.455-6.219a2.786,2.786,0,0,1,4.682,0l3.455,6.219,6.219,3.455a2.678,2.678,0,0,1,0,4.682L21.19,27.126l-3.455,6.219A2.677,2.677,0,0,1,15.393,34.722Zm-5.2-13.393,2.673,1.486a2.666,2.666,0,0,1,1.04,1.04l1.486,2.673,1.486-2.673a2.666,2.666,0,0,1,1.04-1.04l2.673-1.486-2.673-1.486a2.666,2.666,0,0,1-1.04-1.04L15.393,16.13,13.907,18.8a2.666,2.666,0,0,1-1.04,1.04Z" transform="translate(-2 8.135)" fill="#f4f4f4"/>
      <path id="Path_9003" data-name="Path 9003" d="M34.072,34.143a2.679,2.679,0,0,1-2.486-1.683l-3.4-8.5-8.5-3.4a2.678,2.678,0,0,1,0-4.973l8.5-3.4,3.4-8.5a2.678,2.678,0,0,1,4.973,0l3.4,8.5,8.5,3.4a2.678,2.678,0,0,1,0,4.973l-8.5,3.4-3.4,8.5a2.679,2.679,0,0,1-2.486,1.683ZM27.89,18.071l3.35,1.341A2.676,2.676,0,0,1,32.731,20.9l1.341,3.35,1.341-3.35A2.676,2.676,0,0,1,36.9,19.412l3.35-1.341L36.9,16.731a2.676,2.676,0,0,1-1.491-1.491l-1.341-3.35-1.341,3.35a2.676,2.676,0,0,1-1.491,1.491l-3.35,1.341Z" transform="translate(24.858 -2)" fill="#f4f4f4"/>
    </g>
  </g>
</svg>
