<svg id="Group_292" data-name="Group 292" xmlns="http://www.w3.org/2000/svg" xmlns:xlink="http://www.w3.org/1999/xlink" width="44.715" height="49.821" viewBox="0 0 44.715 49.821">
  <defs>
    <clipPath id="clip-path">
      <rect id="Rectangle_8" data-name="Rectangle 8" width="44.715" height="49.822" fill="#4a44e2"/>
    </clipPath>
  </defs>
  <g id="Group_23" data-name="Group 23" clip-path="url(#clip-path)">
    <path id="Path_24" data-name="Path 24" d="M41.788,10.313,25.285.784a5.854,5.854,0,0,0-5.854,0l-16.5,9.529A5.853,5.853,0,0,0,0,15.382V34.439a5.854,5.854,0,0,0,2.927,5.069l16.5,9.529a5.854,5.854,0,0,0,5.854,0l16.5-9.529a5.854,5.854,0,0,0,2.927-5.069V15.382a5.854,5.854,0,0,0-2.927-5.069M16.632,21.049H11.751a.682.682,0,0,1-.682-.682V15.231a.682.682,0,0,1,.682-.682h8.091a.681.681,0,0,1,.387,1.242,7.29,7.29,0,0,0-2.925,4.72.684.684,0,0,1-.672.537m17.014-.233a.682.682,0,0,1-.682.682H26.73a.682.682,0,0,0-.682.682V36.769a.682.682,0,0,1-.682.682h-7.4c-.208,0-.172-7.9-.106-14.414a8.575,8.575,0,0,1,8.574-8.486h6.531a.682.682,0,0,1,.682.682Z" transform="translate(0 0)" fill="#4a44e2"/>
  </g>
</svg>
