<svg xmlns="http://www.w3.org/2000/svg" width="75.034" height="75" viewBox="0 0 75.034 75">
  <g id="Globe" transform="translate(0.016 0.006)">
    <path id="Path_252" data-name="Path 252" d="M20.031,21.718a2.344,2.344,0,0,1,0-4.687h4.687a2.344,2.344,0,0,0,0-4.687H22.375a2.344,2.344,0,1,0-4.687,0v.422a7.031,7.031,0,0,0,2.344,13.64,2.344,2.344,0,1,1,0,4.687H15.344a2.344,2.344,0,1,0,0,4.687h2.344a2.344,2.344,0,1,0,4.687,0v-.422a7.031,7.031,0,0,0-2.344-13.64Z" transform="translate(17.488 13.445)" fill="#f4f4f4"/>
    <path id="Path_253" data-name="Path 253" d="M71.924,52.388a37.334,37.334,0,0,0,0-29.764,1.1,1.1,0,0,0-.117-.234A37.5,37.5,0,1,0,12.513,65.466a2.348,2.348,0,1,0,3.14-3.492,32.6,32.6,0,0,1-6.539-8.062H19.59A44.763,44.763,0,0,0,29.855,69.4a32.6,32.6,0,0,1-7.64-2.859,2.344,2.344,0,0,0-2.2,4.125A37.5,37.5,0,0,0,71.806,52.623,1.1,1.1,0,0,0,71.924,52.388ZM65.9,21.1H55.448A44.834,44.834,0,0,0,45.206,5.633,33,33,0,0,1,65.9,21.1ZM29.832,5.633A44.834,44.834,0,0,0,19.59,21.1H9.138A33,33,0,0,1,29.832,5.633ZM6.911,25.788H18.77a2.344,2.344,0,0,0,4.312-.422A40.029,40.029,0,0,1,37.519,5.211a40.1,40.1,0,0,1,14.53,20.2,2.344,2.344,0,0,0,4.219.375H67.986a32.342,32.342,0,0,1,0,23.436H56.268a2.344,2.344,0,0,0-4.312.375A40.1,40.1,0,0,1,37.519,69.8,39.842,39.842,0,0,1,23.035,49.74a2.344,2.344,0,0,0-4.265-.516H7.052a32.108,32.108,0,0,1-.141-23.436ZM45.206,69.38A44.834,44.834,0,0,0,55.448,53.912H65.9A33,33,0,0,1,45.206,69.38Z" transform="translate(0)" fill="#f4f4f4"/>
    <path id="Path_254" data-name="Path 254" d="M29.436,52.873A23.436,23.436,0,1,1,52.873,29.436,23.436,23.436,0,0,1,29.436,52.873Zm0-42.185A18.749,18.749,0,1,0,48.185,29.436,18.749,18.749,0,0,0,29.436,10.687Z" transform="translate(8.083 8.07)" fill="#f4f4f4"/>
  </g>
</svg>
