<svg xmlns="http://www.w3.org/2000/svg" xmlns:xlink="http://www.w3.org/1999/xlink" width="83.262" height="83.262" viewBox="0 0 83.262 83.262">
  <defs>
    <clipPath id="clip-path">
      <rect id="Rectangle_356" data-name="Rectangle 356" width="83.262" height="83.262" fill="none"/>
    </clipPath>
  </defs>
  <g id="Group_2053" data-name="Group 2053" transform="translate(26 -51)">
    <g id="Group_1917" data-name="Group 1917" transform="translate(-26 51)" clip-path="url(#clip-path)">
      <path id="Path_9307" data-name="Path 9307" d="M64.739,0H18.523A18.523,18.523,0,0,0,0,18.523V64.739A18.523,18.523,0,0,0,18.523,83.262H64.739A18.523,18.523,0,0,0,83.262,64.739V18.523A18.523,18.523,0,0,0,64.739,0M48.546,56.445c-.249,2.837-.75,6.96-1.139,9.61a20.083,20.083,0,0,1-1.026,4.691A4.2,4.2,0,0,1,43.3,73.439a6.67,6.67,0,0,1-1.609.138,6.9,6.9,0,0,1-1.61-.138A5.1,5.1,0,0,1,38,72.551a3.316,3.316,0,0,1-.575-.585c-1.15-1.077-1.633-3.124-2.371-8.242C33.869,55.5,33.61,50.41,34.3,48.8c.909-2.137,3.38-3.351,6.832-3.364a8.52,8.52,0,0,1,5.5,1.6q.144.094.284.193a4.062,4.062,0,0,1,1.332,1.464,6.137,6.137,0,0,1,.5,2.318,38.48,38.48,0,0,1-.194,5.44M29.257,48.513l1.431,1.728v2.115a5.6,5.6,0,0,1-.207,2.115,9.992,9.992,0,0,1-1.776-1.249l-.115-.052a20.84,20.84,0,0,1-6.5-10.4,23.016,23.016,0,0,1,.028-9.435A20.368,20.368,0,0,1,35.334,19.4a24.155,24.155,0,0,1,10.129-.366c9.657,2.147,16.514,11.819,15.188,21.413a19.559,19.559,0,0,1-4.218,9.991c-1.166,1.49-4,3.992-4.5,3.992a7.181,7.181,0,0,1-.163-2.094V50.241l1.444-1.721a15.8,15.8,0,0,0-.888-21.592,15.068,15.068,0,0,0-8.41-4.32A10.713,10.713,0,0,0,38.9,22.58a15.269,15.269,0,0,0-8.716,4.356,15.741,15.741,0,0,0-.926,21.578M48.521,35.988a6.92,6.92,0,0,1-11.777,4.931A6.535,6.535,0,0,1,34.391,35.7a6.8,6.8,0,0,1,3.857-6.051,7.138,7.138,0,0,1,3.842-.558,6.92,6.92,0,0,1,6.432,6.9m21.532,7.069a29.508,29.508,0,0,1-11.24,18.381c-2.115,1.592-7.271,4.374-8.1,4.374-.306,0-.333-.316-.194-1.6.249-2.054.5-2.481,1.664-2.97a27.009,27.009,0,0,0,6.967-4.979A26.514,26.514,0,0,0,66.112,44a32.634,32.634,0,0,0-.163-12.156A25.9,25.9,0,0,0,46.436,13.27a32.678,32.678,0,0,0-10.411,0A26.107,26.107,0,0,0,16.343,32.447a35.251,35.251,0,0,0,0,11.574A26.6,26.6,0,0,0,27.417,59.674a23.985,23.985,0,0,0,2.86,1.638c1.165.5,1.415.916,1.636,2.969.138,1.249.111,1.61-.194,1.61a22.619,22.619,0,0,1-3.109-1.332l-.132-.1A28.978,28.978,0,0,1,12.41,43.6,38.448,38.448,0,0,1,12.3,33.055a29.246,29.246,0,0,1,7.6-14.931,28.7,28.7,0,0,1,21.26-9.215,28.511,28.511,0,0,1,21.01,8.976,28.755,28.755,0,0,1,7.853,15.237,40.967,40.967,0,0,1,.028,9.936" fill="#4a44e2"/>
    </g>
  </g>
</svg>
