<svg xmlns="http://www.w3.org/2000/svg" width="69.643" height="75" viewBox="0 0 69.643 75">
  <g id="d" transform="translate(-3 -2)">
    <g id="Group_398" data-name="Group 398" transform="translate(3 2)">
      <path id="Path_146" data-name="Path 146" d="M4,28.393V23.036A8.044,8.044,0,0,0,12.036,15h5.357A13.409,13.409,0,0,1,4,28.393Z" transform="translate(-1.321 19.821)" fill="#4a44e2"/>
      <path id="Path_147" data-name="Path 147" d="M36.393,28.393A13.409,13.409,0,0,1,23,15h5.357a8.044,8.044,0,0,0,8.036,8.036Z" transform="translate(30.571 19.821)" fill="#4a44e2"/>
      <path id="Path_148" data-name="Path 148" d="M17.393,37.393H12.036A8.044,8.044,0,0,0,4,29.357V24A13.409,13.409,0,0,1,17.393,37.393Z" transform="translate(-1.321 34.929)" fill="#4a44e2"/>
      <path id="Path_149" data-name="Path 149" d="M28.357,37.393H23A13.409,13.409,0,0,1,36.393,24v5.357A8.044,8.044,0,0,0,28.357,37.393Z" transform="translate(30.571 34.929)" fill="#4a44e2"/>
      <path id="Path_150" data-name="Path 150" d="M69.964,56.857H5.679A2.679,2.679,0,0,1,3,54.179v-37.5A2.679,2.679,0,0,1,5.679,14H69.964a2.678,2.678,0,0,1,2.679,2.679v37.5A2.678,2.678,0,0,1,69.964,56.857ZM8.357,51.5H67.286V19.357H8.357Z" transform="translate(-3 18.143)" fill="#4a44e2"/>
      <path id="Path_151" data-name="Path 151" d="M21.875,39.429c-5.169,0-9.375-4.806-9.375-10.714S16.706,18,21.875,18s9.375,4.806,9.375,10.714S27.044,39.429,21.875,39.429Zm0-16.071c-2.178,0-4.018,2.454-4.018,5.357s1.84,5.357,4.018,5.357,4.018-2.454,4.018-5.357S24.053,23.357,21.875,23.357Z" transform="translate(12.946 24.857)" fill="#4a44e2"/>
      <path id="Path_152" data-name="Path 152" d="M50.877,2.235a2.519,2.519,0,0,0-.235.156L36.464,16.568,27.644,7.748a2.678,2.678,0,0,0-3.788,0L7.785,23.819a2.678,2.678,0,1,0,3.787,3.788L25.75,13.429,34.57,22.25a2.678,2.678,0,0,0,3.788,0L54.113,6.5,50.877,2.235Z" transform="translate(3.714 -1.606)" fill="#4a44e2"/>
      <path id="Path_153" data-name="Path 153" d="M32.393,18.071a2.678,2.678,0,0,1-2.679-2.679V7.357H21.679a2.679,2.679,0,1,1,0-5.357H32.393a2.678,2.678,0,0,1,2.679,2.679V15.393A2.678,2.678,0,0,1,32.393,18.071Z" transform="translate(23.857 -2)" fill="#4a44e2"/>
      <path id="Path_154" data-name="Path 154" d="M12.357,26.357H9.679a2.679,2.679,0,1,1,0-5.357h2.679a2.679,2.679,0,1,1,0,5.357Z" transform="translate(3.714 29.893)" fill="#4a44e2"/>
      <path id="Path_155" data-name="Path 155" d="M27.357,26.357H24.679a2.679,2.679,0,0,1,0-5.357h2.679a2.679,2.679,0,1,1,0,5.357Z" transform="translate(28.893 29.893)" fill="#4a44e2"/>
    </g>
  </g>
</svg>
