<svg xmlns="http://www.w3.org/2000/svg" width="80.77" height="75" viewBox="0 0 80.77 75">
  <g id="f" transform="translate(-2 -3)">
    <g id="Group_1288" data-name="Group 1288" transform="translate(2 3)">
      <rect id="Rectangle_239" data-name="Rectangle 239" width="6" height="52" transform="translate(17 20.001)" fill="#f4f4f4"/>
      <path id="Path_8985" data-name="Path 8985" d="M53.432,25.772,21.1,9.6,10.968,24.792l-4.8-3.2L17.707,4.284A2.89,2.89,0,0,1,21.4,3.3L56.012,20.612l-2.58,5.161Z" transform="translate(5.855 -3)" fill="#f4f4f4"/>
      <path id="Path_8986" data-name="Path 8986" d="M79.885,68.577H10.654A8.663,8.663,0,0,1,2,59.923V8H7.769V59.923a2.887,2.887,0,0,0,2.885,2.885H77V16.654H74.116V10.885h5.769a2.884,2.884,0,0,1,2.885,2.885V65.693A2.884,2.884,0,0,1,79.885,68.577Z" transform="translate(-2 6.423)" fill="#f4f4f4"/>
      <path id="Path_8987" data-name="Path 8987" d="M74.116,22.308H10.654A8.654,8.654,0,1,1,10.654,5H24.125v5.769H10.654a2.885,2.885,0,0,0,0,5.769H71.231V10.769H39.5V5H74.116A2.884,2.884,0,0,1,77,7.885V19.423A2.884,2.884,0,0,1,74.116,22.308Z" transform="translate(-2 0.769)" fill="#f4f4f4"/>
      <path id="Path_8988" data-name="Path 8988" d="M32.539,28.769H23.885a2.885,2.885,0,0,1,0-5.769h8.654a2.885,2.885,0,1,1,0,5.769Z" transform="translate(33.808 34.692)" fill="#f4f4f4"/>
    </g>
  </g>
</svg>
