<svg xmlns="http://www.w3.org/2000/svg" width="92.304" height="77.628" viewBox="0 0 92.304 77.628">
  <g id="Ingot" transform="translate(0.053 -2)">
    <path id="Path_8891" data-name="Path 8891" d="M92.1,51.457l-5.75-17.25a2.875,2.875,0,0,0-2.875-1.955H76.918L71.973,16.958A2.875,2.875,0,0,0,69.1,15H51.849a2.875,2.875,0,0,0-2.731,1.955L46.1,26.042l-2.875-9.085A2.875,2.875,0,0,0,40.349,15H23.1a2.875,2.875,0,0,0-2.875,1.955L15.279,32.252H8.724a2.875,2.875,0,0,0-2.875,1.955L.1,51.457a2.875,2.875,0,0,0,2.875,3.795h5.75a2.875,2.875,0,1,0,0-5.75H6.971L10.794,38H23.9l3.824,11.5h-7.5a2.875,2.875,0,1,0,0,5.75h69A2.875,2.875,0,0,0,92.1,51.457Zm-38.179-30.7h13.11l3.824,11.5H50.095Zm6.555,22.54L58.72,38h3.507ZM21.345,32.252l3.824-11.5h13.11l3.824,11.5ZM33.478,38l-1.754,5.29L29.97,38ZM35.72,49.5,39.544,38h13.11l3.824,11.5Zm28.75,0L68.293,38H81.4l3.824,11.5Z" transform="translate(0 24.372)" fill="#4a44e2"/>
    <path id="Path_8892" data-name="Path 8892" d="M41.629,32H12.88A2.875,2.875,0,0,1,10.149,28.2l5.75-17.25A2.875,2.875,0,0,1,18.63,9h17.25a2.875,2.875,0,0,1,2.731,1.955l5.75,17.25A2.875,2.875,0,0,1,41.629,32ZM16.876,26.25H37.633l-3.824-11.5H20.7Z" transform="translate(18.844 13.125)" fill="#4a44e2"/>
    <path id="Path_8893" data-name="Path 8893" d="M17.875,13.5A2.875,2.875,0,0,1,15,10.625V4.875a2.875,2.875,0,1,1,5.75,0v5.75A2.875,2.875,0,0,1,17.875,13.5Z" transform="translate(28.224 0)" fill="#4a44e2"/>
    <path id="Path_8894" data-name="Path 8894" d="M15.758,12.633c-1.524,0-1.926-.747-4.916-3.709a2.887,2.887,0,1,1,4.082-4.082L17.8,7.716a2.875,2.875,0,0,1-2.041,4.916Z" transform="translate(18.841 3.742)" fill="#4a44e2"/>
    <path id="Path_8895" data-name="Path 8895" d="M21.886,12.633a2.875,2.875,0,0,1-2.041-4.916L22.72,4.841A2.887,2.887,0,1,1,26.8,8.924C23.755,11.971,23.381,12.633,21.886,12.633Z" transform="translate(35.713 3.742)" fill="#4a44e2"/>
  </g>
</svg>
