<svg xmlns="http://www.w3.org/2000/svg" width="65.641" height="75" viewBox="0 0 65.641 75">
  <g id="Investor" transform="translate(-1.998 -0.005)">
    <path id="Path_289" data-name="Path 289" d="M20.032,15.721a2.344,2.344,0,0,1,0-4.688h4.688a2.344,2.344,0,0,0,0-4.688H22.377a2.344,2.344,0,1,0-4.688,0v.422a7.032,7.032,0,0,0,2.344,13.643,2.344,2.344,0,0,1,0,4.688H15.344a2.344,2.344,0,0,0,0,4.688h2.344a2.344,2.344,0,0,0,4.688,0v-.422a7.032,7.032,0,0,0-2.344-13.643Z" transform="translate(14.789 5.369)" fill="#f4f4f4"/>
    <path id="Path_290" data-name="Path 290" d="M54.91,46.876l-9.845-2.344a23.441,23.441,0,1,0-20.488,0l-9.845,2.344A16.409,16.409,0,0,0,2,63.285a2.344,2.344,0,0,0,4.688,0,11.721,11.721,0,0,1,9.1-11.955L18.9,50.6l1.875,13.01A2.344,2.344,0,0,0,23.1,65.629c.938,0,.375.164,11.721-6.634,11.955,7.173,10.853,6.634,11.721,6.634a2.344,2.344,0,0,0,2.344-2.016L50.761,50.6l3.118.727a11.721,11.721,0,0,1,9.072,11.416v7.572H4.347a2.344,2.344,0,1,0,0,4.688H65.295a2.344,2.344,0,0,0,2.344-2.344V62.746A16.409,16.409,0,0,0,54.91,46.876ZM34.821,52.5l-3.774-4.688,3.774-.938,3.774.867ZM16.068,23.434A18.753,18.753,0,1,1,34.821,42.187,18.753,18.753,0,0,1,16.068,23.434Zm8.861,36.029L23.5,49.548l2.485-.563L31.3,55.619Zm19.785,0-6.376-3.844,5.321-6.634,2.485.563Z" transform="translate(0 0)" fill="#f4f4f4"/>
  </g>
</svg>
