<svg xmlns="http://www.w3.org/2000/svg" width="80.154" height="75" viewBox="0 0 80.154 75">
  <g id="Loan" transform="translate(-0.005 -1)">
    <path id="Path_260" data-name="Path 260" d="M23.639,26.5h-2.5a3.75,3.75,0,0,1,0-7.5h8.75a2.5,2.5,0,1,0,0-5h-5V11.5a2.5,2.5,0,1,0-5,0v2.625a8.772,8.772,0,1,0,1.25,17.5h2.5a3.75,3.75,0,0,1,0,7.5h-8.75a2.5,2.5,0,1,0,0,5h5v2.5a2.5,2.5,0,0,0,5,0V44a8.772,8.772,0,1,0-1.25-17.5Z" transform="translate(17.604 12)" fill="#f4f4f4"/>
    <path id="Path_261" data-name="Path 261" d="M79.042,31.55l-37.5-30a2.5,2.5,0,0,0-3.1,0L24.992,12.3V3.5a2.5,2.5,0,0,0-2.5-2.5h-10a2.5,2.5,0,0,0-2.5,2.5V24.3L.942,31.55a2.491,2.491,0,0,0,3.1,3.9l5.95-4.75V68.5a7.5,7.5,0,0,0,7.5,7.5h45a7.5,7.5,0,0,0,7.5-7.5v-30a2.5,2.5,0,0,0-5,0v30a2.5,2.5,0,0,1-2.5,2.5h-45a2.5,2.5,0,0,1-2.5-2.5V26.7l25-20,35.95,28.75a2.5,2.5,0,1,0,3.1-3.9ZM19.992,6V16.3l-5,4V6Z" transform="translate(0 0)" fill="#f4f4f4"/>
  </g>
</svg>
