<svg xmlns="http://www.w3.org/2000/svg" width="53.369" height="77.628" viewBox="0 0 53.369 77.628">
  <g id="Location" transform="translate(-5)">
    <path id="Path_262" data-name="Path 262" d="M43.135,54.485C49.806,43.35,55.943,31.2,55.943,24.259a24.259,24.259,0,1,0-48.517,0c0,8.806,9.873,25.981,18.146,38.814a7.278,7.278,0,0,0,12.129,0l2.717-4.124c8.1,1.31,13.1,4.318,13.1,6.55,0,2.96-8.515,7.278-21.833,7.278S9.852,68.458,9.852,65.5c0-1.116,1.334-2.426,3.566-3.687a2.426,2.426,0,0,0-2.28-4.27C6.067,60.234,5,63.364,5,65.5c0,7.884,13.755,12.129,26.685,12.129S58.369,73.383,58.369,65.5C58.369,60.453,52.62,56.377,43.135,54.485Zm-9.412,5.992a2.426,2.426,0,0,1-4.075,0C18.609,43.3,12.278,30.105,12.278,24.259a19.407,19.407,0,1,1,38.814,0c0,8.515-12.736,29.11-17.369,36.218Z" fill="#4a44e2"/>
    <path id="Path_263" data-name="Path 263" d="M20.278,17.129a2.426,2.426,0,1,1,0-4.852h4.852a2.426,2.426,0,0,0,0-4.852H22.7a2.426,2.426,0,0,0-4.852,0v.437a7.278,7.278,0,0,0,2.426,14.119,2.426,2.426,0,0,1,0,4.852H15.426a2.426,2.426,0,0,0,0,4.852h2.426a2.426,2.426,0,0,0,4.852,0v-.437a7.278,7.278,0,0,0-2.426-14.119Z" transform="translate(11.407 7.129)" fill="#4a44e2"/>
  </g>
</svg>
