<svg xmlns="http://www.w3.org/2000/svg" width="17.823" height="24.304" viewBox="0 0 17.823 24.304">
  <g id="lock" transform="translate(-5 -1)">
    <rect id="Rectangle_341" data-name="Rectangle 341" width="16" height="11" rx="2" transform="translate(6 13)" fill="#4a44e2"/>
    <path id="Path_9309" data-name="Path 9309" d="M1.62,0A1.62,1.62,0,1,1,0,1.62,1.62,1.62,0,0,1,1.62,0Z" transform="translate(12.291 17.203)" fill="#4a44e2"/>
    <path id="Path_9307" data-name="Path 9307" d="M20.393,12.342V7.481a6.481,6.481,0,1,0-12.962,0v4.861A2.43,2.43,0,0,0,5,14.773v8.1A2.43,2.43,0,0,0,7.43,25.3H20.393a2.43,2.43,0,0,0,2.43-2.43v-8.1A2.43,2.43,0,0,0,20.393,12.342ZM9.051,7.481a4.861,4.861,0,1,1,9.722,0v4.861H9.051ZM21.2,22.874a.81.81,0,0,1-.81.81H7.43a.81.81,0,0,1-.81-.81v-8.1a.81.81,0,0,1,.81-.81H20.393a.81.81,0,0,1,.81.81Z" transform="translate(0)" fill="#f4f4f4"/>
    <path id="Path_9308" data-name="Path 9308" d="M15.43,20a2.43,2.43,0,1,0,2.43,2.43A2.43,2.43,0,0,0,15.43,20Zm0,3.241a.81.81,0,1,1,.81-.81A.81.81,0,0,1,15.43,23.241Z" transform="translate(-1.519 -3.607)" fill="#f4f4f4"/>
  </g>
</svg>
