<svg xmlns="http://www.w3.org/2000/svg" xmlns:xlink="http://www.w3.org/1999/xlink" width="302.23" height="49.822" viewBox="0 0 302.23 49.822">
  <defs>
    <clipPath id="clip-path">
      <rect id="Rectangle_32" data-name="Rectangle 32" width="242.965" height="34.05" fill="#4a44e2"/>
    </clipPath>
    <clipPath id="clip-path-2">
      <rect id="Rectangle_8" data-name="Rectangle 8" width="44.715" height="49.822" fill="#4a44e2"/>
    </clipPath>
  </defs>
  <g id="Group_295" data-name="Group 295" transform="translate(0 0)">
    <g id="Group_294" data-name="Group 294" transform="translate(59.265 7.674)">
      <g id="Group_125" data-name="Group 125" transform="translate(0)">
        <g id="Group_124" data-name="Group 124" clip-path="url(#clip-path)">
          <path id="Path_164" data-name="Path 164" d="M4.891,31.987V21.338H0v-6.17H4.891V8.952l7.4-1.6v7.816h6.765v6.17H12.295v9.187c0,2.148.823,2.925,3.2,2.925a10.764,10.764,0,0,0,3.336-.5v5.987a22,22,0,0,1-5.165.731c-5.8,0-8.775-2.605-8.775-7.679" transform="translate(2.166 -5.752)" fill="#4a44e2"/>
          <path id="Path_165" data-name="Path 165" d="M94.743,53.906a12.419,12.419,0,0,1,12.615-12.523c7.084,0,12.2,5.576,12.2,13.209V56.42H102.33a6.27,6.27,0,0,0,5.942,3.839,6.548,6.548,0,0,0,4.845-1.828l4.891,4.342a14.585,14.585,0,0,1-10.1,3.656c-7.4,0-13.163-5.485-13.163-12.523m17.551-2.651a5.306,5.306,0,0,0-5.073-3.839,5.036,5.036,0,0,0-5.028,3.839Z" transform="translate(-71.964 -32.379)" fill="#4a44e2"/>
          <path id="Path_166" data-name="Path 166" d="M220.78,53.741a12.5,12.5,0,0,1,12.8-12.569,13.675,13.675,0,0,1,10.238,4.479l-4.525,4.708a7,7,0,0,0-5.53-2.788c-3.2,0-5.622,2.651-5.622,6.17a5.807,5.807,0,0,0,5.8,6.124A6.762,6.762,0,0,0,239.2,57.26l4.388,4.571a13.449,13.449,0,0,1-10.01,4.433,12.462,12.462,0,0,1-12.8-12.523" transform="translate(-171.301 -32.214)" fill="#4a44e2"/>
          <path id="Path_167" data-name="Path 167" d="M339.047,1.6l7.4-1.6V11.06a10.515,10.515,0,0,1,6.49-2.1c5.667,0,9.644,4.022,9.644,9.735v14.9h-7.4V19.7a4.126,4.126,0,0,0-4.388-4.388,5.344,5.344,0,0,0-4.342,1.92V33.592h-7.4Z" transform="translate(-264.558 0.001)" fill="#4a44e2"/>
          <path id="Path_168" data-name="Path 168" d="M450.173,43.273h8.044L464.2,58.082l5.988-14.808h7.861L467.724,67.451H460.5Z" transform="translate(-352.228 -33.858)" fill="#4a44e2"/>
          <path id="Path_169" data-name="Path 169" d="M580.2,53.906a12.419,12.419,0,0,1,12.615-12.523c7.084,0,12.2,5.576,12.2,13.209V56.42H587.791a6.27,6.27,0,0,0,5.942,3.839,6.549,6.549,0,0,0,4.845-1.828l4.89,4.342a14.585,14.585,0,0,1-10.1,3.656c-7.4,0-13.163-5.485-13.163-12.523m17.551-2.651a5.307,5.307,0,0,0-5.073-3.839,5.035,5.035,0,0,0-5.028,3.839Z" transform="translate(-455.412 -32.379)" fill="#4a44e2"/>
          <path id="Path_170" data-name="Path 170" d="M702.669,63.439l3.52-4.982c3.062,1.828,5.393,2.605,7.861,2.605,2.422,0,3.976-.731,3.976-1.92,0-.914-.777-1.462-2.468-1.737l-4.8-.731c-4.8-.731-7.4-3.245-7.4-7.221,0-4.89,3.931-7.861,10.421-7.861a18.953,18.953,0,0,1,10.1,2.925l-3.519,4.753a14.294,14.294,0,0,0-7.313-2.194c-1.92,0-3.154.686-3.154,1.737,0,1.006.777,1.508,2.834,1.828l4.8.731c4.753.686,7.45,3.245,7.45,7.039,0,4.708-4.616,8.181-10.878,8.181-4.571,0-8.593-1.1-11.427-3.154" transform="translate(-551.954 -32.543)" fill="#4a44e2"/>
          <path id="Path_171" data-name="Path 171" d="M814.273,31.987V21.338h-4.89v-6.17h4.89V8.952l7.4-1.6v7.816h6.764v6.17h-6.764v9.187c0,2.148.823,2.925,3.2,2.925a10.761,10.761,0,0,0,3.336-.5v5.987a21.992,21.992,0,0,1-5.164.731c-5.8,0-8.775-2.605-8.775-7.679" transform="translate(-635.45 -5.752)" fill="#4a44e2"/>
          <path id="Path_172" data-name="Path 172" d="M904.127,53.741c0-7.039,5.759-12.569,13.117-12.569s13.117,5.53,13.117,12.569S924.6,66.264,917.244,66.264s-13.117-5.485-13.117-12.523m19.013,0a5.9,5.9,0,1,0-5.9,6.124,5.975,5.975,0,0,0,5.9-6.124" transform="translate(-709.581 -32.214)" fill="#4a44e2"/>
          <path id="Path_173" data-name="Path 173" d="M1040.671,41.3h7.4v2.422a7.978,7.978,0,0,1,6.353-2.971,5.146,5.146,0,0,1,2.788.594v6.444a8.48,8.48,0,0,0-3.519-.731,6.594,6.594,0,0,0-5.622,3.062V65.478h-7.4Z" transform="translate(-817.86 -31.886)" fill="#4a44e2"/>
        </g>
      </g>
    </g>
    <g id="Group_292" data-name="Group 292" transform="translate(0 0)">
      <g id="Group_23" data-name="Group 23" clip-path="url(#clip-path-2)">
        <path id="Path_24" data-name="Path 24" d="M41.788,10.313,25.285.784a5.854,5.854,0,0,0-5.854,0l-16.5,9.529A5.853,5.853,0,0,0,0,15.382V34.439a5.854,5.854,0,0,0,2.927,5.069l16.5,9.529a5.854,5.854,0,0,0,5.854,0l16.5-9.529a5.854,5.854,0,0,0,2.927-5.069V15.382a5.854,5.854,0,0,0-2.927-5.069M16.632,21.049H11.751a.682.682,0,0,1-.682-.682V15.231a.682.682,0,0,1,.682-.682h8.091a.681.681,0,0,1,.387,1.242,7.29,7.29,0,0,0-2.925,4.72.684.684,0,0,1-.672.537m17.014-.233a.682.682,0,0,1-.682.682H26.73a.682.682,0,0,0-.682.682V36.769a.682.682,0,0,1-.682.682h-7.4c-.208,0-.172-7.9-.106-14.414a8.575,8.575,0,0,1,8.574-8.486h6.531a.682.682,0,0,1,.682.682Z" transform="translate(0 0)" fill="#4a44e2"/>
      </g>
    </g>
  </g>
</svg>
