<svg xmlns="http://www.w3.org/2000/svg" width="75.002" height="75" viewBox="0 0 75.002 75">
  <g id="q" transform="translate(-2 -2)">
    <g id="Group_1283" data-name="Group 1283" transform="translate(2 2)">
      <rect id="Rectangle_235" data-name="Rectangle 235" width="6" height="43" transform="translate(5 29)" fill="#f4f4f4"/>
      <rect id="Rectangle_236" data-name="Rectangle 236" width="5" height="43" transform="translate(16 29)" fill="#f4f4f4"/>
      <rect id="Rectangle_237" data-name="Rectangle 237" width="5" height="43" transform="translate(54 29)" fill="#f4f4f4"/>
      <rect id="Rectangle_238" data-name="Rectangle 238" width="6" height="43" transform="translate(64 29)" fill="#f4f4f4"/>
      <path id="Path_8953" data-name="Path 8953" d="M33.429,44.108H28.072V25.357H17.357v18.75H12V22.679A2.678,2.678,0,0,1,14.679,20H30.75a2.678,2.678,0,0,1,2.679,2.679Z" transform="translate(14.786 28.214)" fill="#f4f4f4"/>
      <path id="Path_8954" data-name="Path 8954" d="M37.786,21.393H32.429a8.036,8.036,0,0,0-16.072,0H11a13.393,13.393,0,1,1,26.786,0Z" transform="translate(13.108 8.07)" fill="#f4f4f4"/>
      <path id="Path_8955" data-name="Path 8955" d="M74.323,34.143H4.679a2.679,2.679,0,0,1-1.634-4.8L37.867,2.554a2.688,2.688,0,0,1,3.267,0L75.956,29.34a2.679,2.679,0,0,1-1.634,4.8ZM12.554,28.785H66.448L39.5,8.057Z" transform="translate(-2 -2)" fill="#f4f4f4"/>
      <path id="Path_8956" data-name="Path 8956" d="M74.323,33.357H4.679a2.679,2.679,0,1,1,0-5.357H74.323a2.679,2.679,0,0,1,0,5.357Z" transform="translate(-2 41.643)" fill="#f4f4f4"/>
      <path id="Path_8957" data-name="Path 8957" d="M30.75,21.357H14.679a2.679,2.679,0,1,1,0-5.357H30.75a2.679,2.679,0,1,1,0,5.357Z" transform="translate(14.786 21.499)" fill="#f4f4f4"/>
    </g>
  </g>
</svg>
