<svg xmlns="http://www.w3.org/2000/svg" width="58.93" height="75" viewBox="0 0 58.93 75">
  <g id="k" transform="translate(-5 -2)">
    <g id="Group_1285" data-name="Group 1285" transform="translate(5 2)">
      <path id="Path_8964" data-name="Path 8964" d="M34.464,32.071C20.179,32.071,5,27.378,5,18.679a2.679,2.679,0,0,1,5.357,0c0,3.276,9.391,8.036,24.107,8.036s24.107-4.76,24.107-8.036a2.679,2.679,0,1,1,5.357,0C63.929,27.378,48.749,32.071,34.464,32.071Z" transform="translate(-5 21.5)" fill="#f4f4f4"/>
      <path id="Path_8965" data-name="Path 8965" d="M34.464,66.929C20.179,66.929,5,62.235,5,53.536V10.679a2.679,2.679,0,1,1,5.357,0V53.536c0,3.276,9.391,8.036,24.107,8.036s24.107-4.76,24.107-8.036V10.679a2.679,2.679,0,1,1,5.357,0V53.536C63.929,62.235,48.749,66.929,34.464,66.929Z" transform="translate(-5 8.071)" fill="#f4f4f4"/>
      <path id="Path_8966" data-name="Path 8966" d="M34.464,30.205C20.179,30.205,5,25.512,5,16.813c0-5.8,6.838-10.45,18.295-12.429a2.678,2.678,0,1,1,.91,5.279c-8.993,1.554-13.848,4.843-13.848,7.15,0,3.276,9.391,8.036,24.107,8.036s24.107-4.76,24.107-8.036c0-2.307-4.855-5.6-13.848-7.15a2.678,2.678,0,1,1,.91-5.279c11.457,1.979,18.295,6.624,18.295,12.429,0,8.7-15.179,13.393-29.464,13.393Z" transform="translate(-5 1.937)" fill="#f4f4f4"/>
      <path id="Path_8967" data-name="Path 8967" d="M17.761,20.75a2.6,2.6,0,0,0-.316-1.337,8.036,8.036,0,1,1,13.9,0,2.6,2.6,0,0,0-.316,1.337H36.64a13.393,13.393,0,1,0-24.493,0h5.615Z" transform="translate(5.071 -2)" fill="#f4f4f4"/>
      <path id="Path_8968" data-name="Path 8968" d="M43.821,13.357H11.679a2.679,2.679,0,0,1,0-5.357H43.821a2.679,2.679,0,0,1,0,5.357Z" transform="translate(1.714 8.071)" fill="#f4f4f4"/>
    </g>
  </g>
</svg>
