<svg xmlns="http://www.w3.org/2000/svg" width="109.23" height="75" viewBox="0 0 109.23 75">
  <g id="Marketing" transform="translate(0 -5.012)">
    <path id="Path_9012" data-name="Path 9012" d="M38.131,42.893H14.241a3.413,3.413,0,0,1-3.174-2.15L4.242,23.678a3.416,3.416,0,0,1,6.348-2.526l5.972,14.914H34.718V25.828a3.413,3.413,0,0,1,6.826,0V39.48A3.413,3.413,0,0,1,38.131,42.893Z" transform="translate(9.649 33.748)" fill="#f4f4f4"/>
    <path id="Path_9013" data-name="Path 9013" d="M74.673,7.394A61.431,61.431,0,0,1,31.057,25.448a3.413,3.413,0,0,0,0,6.826A68.052,68.052,0,0,0,79.485,12.206a1.468,1.468,0,0,1,2.423.99V71.828a1.468,1.468,0,0,1-2.423.99A68.052,68.052,0,0,0,31.057,52.75H20.477V28.861a3.413,3.413,0,0,0-3.413-3.413H10.239A10.239,10.239,0,0,0,0,35.686V49.338A10.239,10.239,0,0,0,10.239,59.576H31.057A61.431,61.431,0,0,1,74.673,77.63a8.259,8.259,0,0,0,14.061-5.8V13.2a8.259,8.259,0,0,0-14.061-5.8ZM6.826,49.338V35.686a3.413,3.413,0,0,1,3.413-3.413h3.413V52.75H10.239A3.413,3.413,0,0,1,6.826,49.338Z" transform="translate(0 0)" fill="#f4f4f4"/>
    <path id="Path_9014" data-name="Path 9014" d="M38.239,21.826H31.413a3.413,3.413,0,1,1,0-6.826h6.826a3.413,3.413,0,0,1,0,6.826Z" transform="translate(67.56 24.099)" fill="#f4f4f4"/>
    <path id="Path_9015" data-name="Path 9015" d="M31.427,22.661A3.413,3.413,0,0,1,29,16.825L35.83,10a3.427,3.427,0,0,1,4.846,4.846C33.236,22.286,33.27,22.661,31.427,22.661Z" transform="translate(67.546 9.612)" fill="#f4f4f4"/>
    <path id="Path_9016" data-name="Path 9016" d="M38.248,32.661c-1.843,0-1.945-.512-9.249-7.815A3.427,3.427,0,1,1,33.846,20l6.826,6.826a3.413,3.413,0,0,1-2.423,5.836Z" transform="translate(67.55 33.741)" fill="#f4f4f4"/>
  </g>
</svg>
