<svg xmlns="http://www.w3.org/2000/svg" width="61.102" height="77.766" viewBox="0 0 61.102 77.766">
  <g id="p" transform="translate(-5 -2)">
    <g id="Group_388" data-name="Group 388" transform="translate(5 2)">
      <path id="Path_136" data-name="Path 136" d="M22.664,22.442H6V16.887H19.887V3h5.555V19.664A2.777,2.777,0,0,1,22.664,22.442Z" transform="translate(-3.223 -0.223)" fill="#4a44e2"/>
      <path id="Path_137" data-name="Path 137" d="M63.325,79.766H7.777A2.777,2.777,0,0,1,5,76.989V21.442a2.778,2.778,0,0,1,.814-1.964L22.478,2.814A2.775,2.775,0,0,1,24.442,2H63.325A2.777,2.777,0,0,1,66.1,4.777V76.989A2.777,2.777,0,0,1,63.325,79.766Zm-52.77-5.555H60.547V7.555H25.592L10.555,22.592v51.62Z" transform="translate(-5 -2)" fill="#4a44e2"/>
      <path id="Path_138" data-name="Path 138" d="M28.442,25.555H11.777a2.777,2.777,0,1,1,0-5.555H28.442a2.777,2.777,0,1,1,0,5.555Z" transform="translate(2.109 29.993)" fill="#4a44e2"/>
      <path id="Path_139" data-name="Path 139" d="M28.442,29.555H11.777a2.777,2.777,0,1,1,0-5.555H28.442a2.777,2.777,0,1,1,0,5.555Z" transform="translate(2.109 37.102)" fill="#4a44e2"/>
      <path id="Path_140" data-name="Path 140" d="M27.332,25.555H21.777a2.777,2.777,0,0,1,0-5.555h5.555a2.777,2.777,0,1,1,0,5.555Z" transform="translate(19.883 29.993)" fill="#4a44e2"/>
      <path id="Path_141" data-name="Path 141" d="M27.332,29.555H21.777a2.777,2.777,0,1,1,0-5.555h5.555a2.777,2.777,0,1,1,0,5.555Z" transform="translate(19.883 37.102)" fill="#4a44e2"/>
      <path id="Path_142" data-name="Path 142" d="M45.106,8H36.774a2.777,2.777,0,1,0,0,5.555H38.4l-5.555,5.555H22.887a2.775,2.775,0,0,0-1.964.814L9.814,31.033a2.777,2.777,0,1,0,3.927,3.927l10.3-10.3H34a2.775,2.775,0,0,0,1.964-.814l6.368-6.368v1.627a2.777,2.777,0,0,0,5.555,0V10.777A2.777,2.777,0,0,0,45.105,8Z" transform="translate(2.11 8.664)" fill="#4a44e2"/>
    </g>
  </g>
</svg>
