<?xml version="1.0" encoding="utf-8"?>
<!-- Generator: Adobe Illustrator 23.0.1, SVG Export Plug-In . SVG Version: 6.00 Build 0)  -->
<svg version="1.1" id="Layer_1" xmlns="http://www.w3.org/2000/svg" xmlns:xlink="http://www.w3.org/1999/xlink" x="0px" y="0px"
	 viewBox="0 0 119.4 85" style="enable-background:new 0 0 119.4 85;" xml:space="preserve">
<style type="text/css">
	.st0{fill:#82C341;}
	.st1{fill:#4A44E2;}
	.st2{fill:#FFFFFF;}
</style>
<g>
	<g>
		<path class="st0" d="M118.9,47c-0.1,6.4-0.4,12.8-1.2,19.2c0,0-1.2,8.2-4.7,11.7c-4.5,4.7-9.5,4.7-11.9,5
			c-16.5,1.2-41.4,1.2-41.4,1.2s-30.8-0.3-40.2-1.2c-2.6-0.5-8.6-0.3-13.1-5.1c-3.5-3.6-4.7-11.8-4.7-11.8C1,59.7,0.6,53.3,0.6,46.9
			v-9C0.6,31.6,1,25.2,1.7,18.8c0,0,1.1-8.2,4.7-11.7c4.5-4.7,9.5-4.7,11.9-5c16.6-1.2,41.4-1.2,41.4-1.2s24.8,0,41.4,1.2
			c2.3,0.3,7.4,0.3,11.9,5c3.6,3.6,4.7,11.7,4.7,11.7l0,0c0.7,6.4,1.1,12.8,1.2,19.2V47z"/>
		<path class="st1" d="M117.7,18.8c0,0-1.2-8.2-4.7-11.7c-4.5-4.7-9.5-4.7-11.9-5C84.5,0.9,59.7,0.9,59.7,0.9s-24.8,0-41.4,1.2
			c-2.3,0.3-7.3,0.3-11.9,5c-3.6,3.6-4.7,11.7-4.7,11.7C1,25.2,0.6,31.6,0.6,38v9C0.6,53.3,1,59.7,1.7,66.1c0,0,1.2,8.2,4.7,11.8
			c4.5,4.7,10.4,4.6,13.1,5.1c9.5,0.9,40.2,1.2,40.2,1.2s24.9,0,41.4-1.2c2.3-0.3,7.4-0.3,11.9-5c3.6-3.6,4.7-11.7,4.7-11.7
			c0.7-6.4,1.1-12.8,1.2-19.2v-9C118.8,31.6,118.4,25.2,117.7,18.8L117.7,18.8z"/>
	</g>
	<polygon class="st2" points="43.7,59.1 75.7,42.5 43.7,25.9 	"/>
</g>
</svg>
