<svg xmlns="http://www.w3.org/2000/svg" xmlns:xlink="http://www.w3.org/1999/xlink" width="83.262" height="83.263" viewBox="0 0 83.262 83.263">
  <defs>
    <clipPath id="clip-path">
      <rect id="Rectangle_357" data-name="Rectangle 357" width="83.262" height="83.263" fill="none"/>
    </clipPath>
  </defs>
  <g id="Group_1919" data-name="Group 1919" clip-path="url(#clip-path)">
    <path id="Path_9308" data-name="Path 9308" d="M5.2,49.57a5.205,5.205,0,0,0-5.2,5.2v5.678a5.2,5.2,0,1,0,10.408,0V54.774a5.205,5.205,0,0,0-5.2-5.2" transform="translate(0 -15.982)" fill="#4a44e2"/>
    <path id="Path_9309" data-name="Path 9309" d="M112.724,49.57a5.205,5.205,0,0,0-5.2,5.2V60.6a5.206,5.206,0,0,0,10.408,0V54.774a5.205,5.205,0,0,0-5.2-5.2" transform="translate(-34.665 -15.982)" fill="#4a44e2"/>
    <path id="Path_9310" data-name="Path 9310" d="M31.734,74.71a5.205,5.205,0,0,0-5.2,5.2v5.678a5.2,5.2,0,1,0,10.408,0V79.914a5.2,5.2,0,0,0-5.2-5.2" transform="translate(-8.554 -24.087)" fill="#4a44e2"/>
    <path id="Path_9311" data-name="Path 9311" d="M31.734,24.44a5.205,5.205,0,0,0-5.2,5.2V48.21a5.205,5.205,0,0,0,10.408,0V29.644a5.2,5.2,0,0,0-5.2-5.2" transform="translate(-8.554 -7.88)" fill="#4a44e2"/>
    <path id="Path_9312" data-name="Path 9312" d="M86.194,24.43a5.205,5.205,0,0,0-5.2,5.2v5.678a5.2,5.2,0,1,0,10.408,0V29.634a5.205,5.205,0,0,0-5.2-5.2" transform="translate(-26.112 -7.876)" fill="#4a44e2"/>
    <path id="Path_9313" data-name="Path 9313" d="M58.964,99.14a5.205,5.205,0,0,0-5.2,5.2v5.678a5.2,5.2,0,1,0,10.408,0v-5.678a5.205,5.205,0,0,0-5.2-5.2" transform="translate(-17.333 -31.963)" fill="#4a44e2"/>
    <path id="Path_9314" data-name="Path 9314" d="M58.964,0a5.205,5.205,0,0,0-5.2,5.2v5.678a5.2,5.2,0,1,0,10.408,0V5.2a5.205,5.205,0,0,0-5.2-5.2" transform="translate(-17.333 0)" fill="#4a44e2"/>
    <path id="Path_9315" data-name="Path 9315" d="M86.194,55.85a5.205,5.205,0,0,0-5.2,5.2V79.5a5.2,5.2,0,1,0,10.408,0V61.054a5.205,5.205,0,0,0-5.2-5.2" transform="translate(-26.112 -18.006)" fill="#4a44e2"/>
    <path id="Path_9316" data-name="Path 9316" d="M58.964,31.42a5.205,5.205,0,0,0-5.2,5.2V66.9a5.2,5.2,0,1,0,10.408,0V36.624a5.205,5.205,0,0,0-5.2-5.2" transform="translate(-17.333 -10.13)" fill="#4a44e2"/>
  </g>
</svg>
