<svg xmlns="http://www.w3.org/2000/svg" width="58.377" height="64.644" viewBox="0 0 58.377 64.644">
  <g id="Group_2376" data-name="Group 2376" transform="translate(-11.911 -8.898)">
    <path id="Path_9337" data-name="Path 9337" d="M38.9,22.6a10.564,10.564,0,0,1,5,0,15.128,15.128,0,0,1,8.4,4.3,15.894,15.894,0,0,1,.9,21.6l-1.4,1.7v2.1a7.487,7.487,0,0,0,.2,2.1c.5,0,3.3-2.5,4.5-4a19.408,19.408,0,0,0,4.2-10C62,30.9,55.1,21.2,45.5,19a22.944,22.944,0,0,0-10.1.4A20.232,20.232,0,0,0,22.2,33.3a21.3,21.3,0,0,0,0,9.4,20.763,20.763,0,0,0,6.5,10.4l.1.1a5.675,5.675,0,0,0,1.8,1.2,5.022,5.022,0,0,0,.2-2.1V50.2l-1.4-1.7h0a15.792,15.792,0,0,1,.9-21.6A14.472,14.472,0,0,1,38.9,22.6Z" fill="#fff"/>
    <path id="Path_9338" data-name="Path 9338" d="M46.9,47.2c-.1-.1-.2-.1-.3-.2a8.3,8.3,0,0,0-5.5-1.6c-3.5,0-5.9,1.2-6.8,3.4-.7,1.6-.4,6.7.8,14.9.7,5.1,1.2,7.2,2.4,8.2l.6.6a4.972,4.972,0,0,0,2.1.9,4.329,4.329,0,0,0,1.6.1,8.6,8.6,0,0,0,1.6-.1,4.232,4.232,0,0,0,3.1-2.7,18.756,18.756,0,0,0,1-4.7c.4-2.6.9-6.8,1.1-9.6h0a32.523,32.523,0,0,0,.2-5.4,5.932,5.932,0,0,0-.5-2.3A5.017,5.017,0,0,0,46.9,47.2Z" fill="#fff"/>
    <path id="Path_9339" data-name="Path 9339" d="M70,33.1a27.675,27.675,0,0,0-7.9-15.2,29.129,29.129,0,0,0-42.3.2A29.175,29.175,0,0,0,12.2,33a40.963,40.963,0,0,0,.1,10.5A29.133,29.133,0,0,0,28.4,64.4l.1.1a16.924,16.924,0,0,0,3.1,1.3c.3,0,.3-.4.2-1.6-.2-2.1-.5-2.5-1.6-3-1-.5-1.9-1-2.9-1.6A27.058,27.058,0,0,1,16.3,44a37.6,37.6,0,0,1,0-11.6A26.216,26.216,0,0,1,36,13.2a30.269,30.269,0,0,1,10.4,0A25.831,25.831,0,0,1,65.9,31.8,33.333,33.333,0,0,1,66.1,44a26.511,26.511,0,0,1-14,17.3c-1.2.5-1.4.9-1.7,3-.1,1.3-.1,1.6.2,1.6.8,0,6-2.8,8.1-4.4A29.731,29.731,0,0,0,69.9,43.1h0A37.211,37.211,0,0,0,70,33.1Z" fill="#fff"/>
    <path id="Path_9340" data-name="Path 9340" d="M38.2,29.6a7.064,7.064,0,0,0-3.9,6.1,6.3,6.3,0,0,0,2.4,5.2,6.8,6.8,0,0,0,4.9,2A6.914,6.914,0,0,0,48.5,36h0a6.961,6.961,0,0,0-6.4-6.9A7.55,7.55,0,0,0,38.2,29.6Z" fill="#fff"/>
  </g>
</svg>
