<svg xmlns="http://www.w3.org/2000/svg" xmlns:xlink="http://www.w3.org/1999/xlink" width="110.972" height="123.645" viewBox="0 0 110.972 123.645">
  <defs>
    <clipPath id="clip-path">
      <rect id="Rectangle_8" data-name="Rectangle 8" width="110.972" height="123.645" fill="#4a44e2"/>
    </clipPath>
  </defs>
  <g id="Group_1574" data-name="Group 1574" transform="translate(0 0)">
    <g id="Group_292" data-name="Group 292" transform="translate(0 0)">
      <g id="Group_23" data-name="Group 23" clip-path="url(#clip-path)">
        <path id="Path_24" data-name="Path 24" d="M103.709,25.594,62.75,1.946a14.529,14.529,0,0,0-14.528,0L7.264,25.594A14.527,14.527,0,0,0,0,38.175v47.3A14.527,14.527,0,0,0,7.264,98.051L48.223,121.7a14.529,14.529,0,0,0,14.528,0l40.959-23.648a14.528,14.528,0,0,0,7.263-12.581v-47.3a14.527,14.527,0,0,0-7.263-12.581M41.277,52.238H29.163a1.692,1.692,0,0,1-1.692-1.692V37.8a1.692,1.692,0,0,1,1.692-1.692H49.244a1.691,1.691,0,0,1,.959,3.083c-3.689,2.554-6.127,6.4-7.26,11.714a1.7,1.7,0,0,1-1.667,1.333M83.5,51.66a1.691,1.691,0,0,1-1.692,1.692H66.338a1.692,1.692,0,0,0-1.692,1.692V91.251a1.691,1.691,0,0,1-1.692,1.692H44.587c-.517,0-.427-19.594-.264-35.773A21.281,21.281,0,0,1,65.6,36.108H81.81A1.691,1.691,0,0,1,83.5,37.8Z" transform="translate(0 0)" fill="#4a44e2"/>
      </g>
    </g>
  </g>
</svg>
