<svg id="Presentation" xmlns="http://www.w3.org/2000/svg" width="74.99" height="75" viewBox="0 0 74.99 75">
  <path id="Path_9004" data-name="Path 9004" d="M72.647,60.93H70.3V9.374h2.343a2.343,2.343,0,0,0,0-4.687H39.839V2.343a2.343,2.343,0,0,0-4.687,0V4.687H2.343a2.343,2.343,0,1,0,0,4.687H65.617V60.93H9.374V18.748a2.343,2.343,0,1,0-4.687,0V60.93H2.343a2.343,2.343,0,0,0,0,4.687H24.817l-5.39,5.367a2.353,2.353,0,0,0,3.328,3.328l8.671-8.694H43.565l8.671,8.694a2.353,2.353,0,1,0,3.328-3.328l-5.39-5.367H72.647a2.343,2.343,0,0,0,0-4.687Z" fill="#f4f4f4"/>
  <path id="Path_9005" data-name="Path 9005" d="M22.894,23.4H20.55a3.515,3.515,0,1,1,0-7.03h8.2a2.343,2.343,0,0,0,0-4.687H24.065V9.343a2.343,2.343,0,0,0-4.687,0V11.8a8.223,8.223,0,1,0,1.172,16.4h2.343a3.515,3.515,0,1,1,0,7.03h-8.2a2.343,2.343,0,1,0,0,4.687h4.687v2.343a2.343,2.343,0,0,0,4.687,0V39.808a8.223,8.223,0,0,0-1.172-16.4Z" transform="translate(15.773 9.404)" fill="#f4f4f4"/>
</svg>
