<svg xmlns="http://www.w3.org/2000/svg" width="95.457" height="75" viewBox="0 0 95.457 75">
  <g id="o" transform="translate(-2 -5)">
    <g id="Group_1278" data-name="Group 1278" transform="translate(2 5)">
      <path id="Path_8928" data-name="Path 8928" d="M46.659,10.394a3.364,3.364,0,0,0-1.75,2.917V60.187H10.818V13.312a3.347,3.347,0,0,0-.8-2.111L4,16.721V63.6A3.408,3.408,0,0,0,7.409,67H48.318A3.408,3.408,0,0,0,51.727,63.6V14.866Z" transform="translate(2.818 7.995)" fill="#f4f4f4"/>
      <path id="Path_8929" data-name="Path 8929" d="M59.955,35.682a3.389,3.389,0,0,1-2.244-.844l-25.029-21.9L7.653,34.838a3.408,3.408,0,1,1-4.488-5.13L30.438,5.844a3.4,3.4,0,0,1,4.488,0L62.2,29.708a3.408,3.408,0,0,1-2.244,5.974Z" transform="translate(-2 -5)" fill="#f4f4f4"/>
      <path id="Path_8930" data-name="Path 8930" d="M74.773,35.682H40.682a3.409,3.409,0,0,1,0-6.818H65.7L46.219,11.818H13.409a3.409,3.409,0,0,1,0-6.818H47.5a3.4,3.4,0,0,1,2.244.844L77.017,29.708a3.408,3.408,0,0,1-2.244,5.974Z" transform="translate(17.273 -5)" fill="#f4f4f4"/>
      <path id="Path_8931" data-name="Path 8931" d="M53.5,63.136H19.409a3.409,3.409,0,1,1,0-6.818H50.091V15.409a3.409,3.409,0,1,1,6.818,0V59.727A3.408,3.408,0,0,1,53.5,63.136Z" transform="translate(31.727 11.864)" fill="#f4f4f4"/>
      <path id="Path_8932" data-name="Path 8932" d="M28.455,38.273A10.238,10.238,0,0,0,18.227,28.045a3.409,3.409,0,1,1,2.956-5.1,3.409,3.409,0,1,0,5.886-3.439,10.138,10.138,0,0,0-5.433-4.445v-.654a3.409,3.409,0,0,0-6.818,0v.628a10.2,10.2,0,0,0,3.409,19.826,3.409,3.409,0,1,1-2.956,5.1A3.409,3.409,0,1,0,9.385,43.4a10.138,10.138,0,0,0,5.433,4.445V48.5a3.409,3.409,0,0,0,6.818,0v-.628a10.21,10.21,0,0,0,6.818-9.6Z" transform="translate(12.455 9.455)" fill="#f4f4f4"/>
    </g>
  </g>
</svg>
