<svg xmlns="http://www.w3.org/2000/svg" width="65.561" height="75" viewBox="0 0 65.561 75">
  <g id="Protection" transform="translate(-2 0.002)">
    <path id="Path_9006" data-name="Path 9006" d="M34.265,74.928A41.4,41.4,0,0,1,2,34.328V16.393a2.341,2.341,0,0,1,2.341-2.341A36.643,36.643,0,0,0,32.977.846a2.341,2.341,0,0,1,3.606,0A36.6,36.6,0,0,0,65.219,14.051a2.341,2.341,0,0,1,0,4.683A41.209,41.209,0,0,1,34.78,5.856a41.186,41.186,0,0,1-28.1,12.878V34.375a36.737,36.737,0,0,0,28.1,35.871,36.737,36.737,0,0,0,28.1-35.918v-8.57a2.341,2.341,0,0,1,4.683,0v8.57A41.4,41.4,0,0,1,35.3,74.928,1.92,1.92,0,0,1,34.265,74.928Z" fill="#f4f4f4"/>
    <path id="Path_9007" data-name="Path 9007" d="M22.884,24.39H20.543a3.512,3.512,0,1,1,0-7.024h8.2a2.341,2.341,0,0,0,0-4.683H24.055V10.341a2.341,2.341,0,0,0-4.683,0V12.8a8.216,8.216,0,1,0,1.171,16.39h2.341a3.512,3.512,0,0,1,0,7.024h-8.2a2.341,2.341,0,0,0,0,4.683h4.683v2.341a2.341,2.341,0,0,0,4.683,0V40.78a8.216,8.216,0,0,0-1.171-16.39Z" transform="translate(13.067 10.734)" fill="#f4f4f4"/>
  </g>
</svg>
