<svg xmlns="http://www.w3.org/2000/svg" width="87.5" height="75" viewBox="0 0 87.5 75">
  <g id="y" transform="translate(-2 -4)">
    <g id="Group_1286" data-name="Group 1286" transform="translate(2 4)">
      <path id="Path_8969" data-name="Path 8969" d="M18.625,37.625h-6.25A9.385,9.385,0,0,0,3,28.25V22A15.644,15.644,0,0,1,18.625,37.625Z" transform="translate(0.125 34.25)" fill="#f4f4f4"/>
      <path id="Path_8970" data-name="Path 8970" d="M26.25,37.625H20A15.644,15.644,0,0,1,35.625,22v6.25A9.385,9.385,0,0,0,26.25,37.625Z" transform="translate(36.25 34.25)" fill="#f4f4f4"/>
      <path id="Path_8971" data-name="Path 8971" d="M3,28.625v-6.25A9.385,9.385,0,0,0,12.375,13h6.25A15.644,15.644,0,0,1,3,28.625Z" transform="translate(0.125 15.125)" fill="#f4f4f4"/>
      <path id="Path_8972" data-name="Path 8972" d="M73.875,62H5.125A3.123,3.123,0,0,1,2,58.875V15.125A3.123,3.123,0,0,1,5.125,12H49.656v6.25H8.25v37.5h62.5V26.844H77V58.875A3.123,3.123,0,0,1,73.875,62Z" transform="translate(-2 13)" fill="#f4f4f4"/>
      <path id="Path_8973" data-name="Path 8973" d="M22.5,41A12.5,12.5,0,1,1,35,28.5,12.512,12.512,0,0,1,22.5,41Zm0-18.75a6.25,6.25,0,1,0,6.25,6.25A6.258,6.258,0,0,0,22.5,22.25Z" transform="translate(15 21.5)" fill="#f4f4f4"/>
      <path id="Path_8974" data-name="Path 8974" d="M37.875,47.75A21.875,21.875,0,1,1,59.75,25.875,21.9,21.9,0,0,1,37.875,47.75Zm0-37.5A15.625,15.625,0,1,0,53.5,25.875,15.644,15.644,0,0,0,37.875,10.25Z" transform="translate(27.75 -4)" fill="#f4f4f4"/>
      <path id="Path_8975" data-name="Path 8975" d="M27.562,24.125a3.115,3.115,0,0,1-2.209-.916l-4.687-4.687A3.125,3.125,0,0,1,25.085,14.1l2.478,2.478,7.166-7.166a3.125,3.125,0,1,1,4.419,4.419l-9.375,9.375a3.115,3.115,0,0,1-2.209.916Z" transform="translate(35.719 5.562)" fill="#f4f4f4"/>
    </g>
  </g>
</svg>
