<svg xmlns="http://www.w3.org/2000/svg" width="75.005" height="75" viewBox="0 0 75.005 75">
  <g id="Revenue" transform="translate(0.013)">
    <path id="Path_281" data-name="Path 281" d="M37.517,0A37.219,37.219,0,0,0,9.392,12.727V11.719a2.344,2.344,0,0,0-4.687,0V18.75a2.344,2.344,0,0,0,2.344,2.344h7.031a2.344,2.344,0,0,0,0-4.687H12.392A32.812,32.812,0,1,1,5.876,28.758a2.351,2.351,0,1,0-4.5-1.359A37.5,37.5,0,1,0,37.517,0Z" transform="translate(0 0)" fill="#f4f4f4"/>
    <path id="Path_282" data-name="Path 282" d="M25.062,25.75V16.375h7.031a2.344,2.344,0,1,0,0-4.687H25.062V9.344a2.344,2.344,0,1,0-4.687,0v2.344a9.375,9.375,0,0,0,0,18.75v9.375H13.344a2.344,2.344,0,1,0,0,4.687h7.031v2.344a2.344,2.344,0,1,0,4.687,0V44.5a9.375,9.375,0,1,0,0-18.75Zm-9.375-4.687a4.687,4.687,0,0,1,4.687-4.687V25.75A4.687,4.687,0,0,1,15.687,21.062Zm9.375,18.75V30.437a4.687,4.687,0,0,1,0,9.375Z" transform="translate(14.798 9.406)" fill="#f4f4f4"/>
  </g>
</svg>
