<svg xmlns="http://www.w3.org/2000/svg" width="75" height="75" viewBox="0 0 75 75">
  <g id="h" transform="translate(-2 -2)">
    <g id="Group_511" data-name="Group 511" transform="translate(2 2)">
      <rect id="Rectangle_99" data-name="Rectangle 99" width="69.429" height="5.143" transform="translate(2.571 21.429)" fill="#4a44e2"/>
      <path id="Path_198" data-name="Path 198" d="M74.321,77H4.679A2.679,2.679,0,0,1,2,74.321V4.679A2.679,2.679,0,0,1,4.679,2H74.321A2.679,2.679,0,0,1,77,4.679V74.321A2.679,2.679,0,0,1,74.321,77ZM7.357,71.643H71.643V7.357H7.357Z" transform="translate(-2 -2)" fill="#4a44e2"/>
      <circle id="Ellipse_225" data-name="Ellipse 225" cx="2.571" cy="2.571" r="2.571" transform="translate(11.143 11.143)" fill="#4a44e2"/>
      <circle id="Ellipse_226" data-name="Ellipse 226" cx="2.571" cy="2.571" r="2.571" transform="translate(21.429 11.143)" fill="#4a44e2"/>
      <path id="Path_199" data-name="Path 199" d="M36.75,11.357H20.679a2.679,2.679,0,1,1,0-5.357H36.75a2.679,2.679,0,0,1,0,5.357Z" transform="translate(24.857 4.714)" fill="#4a44e2"/>
      <path id="Path_200" data-name="Path 200" d="M43.464,25.357H23.145l.785-.785a2.678,2.678,0,1,0-3.788-3.788l-5.357,5.357a2.678,2.678,0,0,0,0,3.788l5.357,5.357A2.678,2.678,0,0,0,23.929,31.5l-.785-.785H43.464a2.679,2.679,0,1,0,0-5.357Z" transform="translate(18.143 28.214)" fill="#4a44e2"/>
      <path id="Path_201" data-name="Path 201" d="M45.358,20.142,40,14.785a2.678,2.678,0,0,0-3.788,3.788l.785.785H16.679a2.679,2.679,0,1,0,0,5.357H37l-.785.785A2.678,2.678,0,1,0,40,29.287l5.357-5.357a2.678,2.678,0,0,0,0-3.788Z" transform="translate(18.143 18.143)" fill="#4a44e2"/>
      <path id="Path_202" data-name="Path 202" d="M22.071,35.429a8.044,8.044,0,0,0-8.036-8.036,2.679,2.679,0,1,1,2.32-4.007,2.679,2.679,0,0,0,4.628-2.7,7.959,7.959,0,0,0-4.269-3.494v-.513a2.679,2.679,0,1,0-5.357,0v.494A8.016,8.016,0,0,0,14.036,32.75a2.679,2.679,0,1,1-2.32,4.007,2.679,2.679,0,0,0-4.628,2.7,7.959,7.959,0,0,0,4.269,3.494v.513a2.679,2.679,0,0,0,5.357,0v-.494A8.022,8.022,0,0,0,22.071,35.429Z" transform="translate(4.714 18.143)" fill="#4a44e2"/>
    </g>
  </g>
</svg>
