<svg xmlns="http://www.w3.org/2000/svg" width="87.322" height="74.848" viewBox="0 0 87.322 74.848">
  <g id="ab" transform="translate(-2 -4)">
    <g id="Group_397" data-name="Group 397" transform="translate(2 4)">
      <path id="Path_143" data-name="Path 143" d="M39.424,78.848A37.424,37.424,0,1,1,76.848,41.424c0,1.182-.067,2.336-.167,3.484l-6.213-.542c.085-.971.143-1.943.143-2.942a31.166,31.166,0,1,0-9.129,22.059l4.41,4.41A37.182,37.182,0,0,1,39.424,78.848Z" transform="translate(-2 -4)" fill="#f4f4f4"/>
      <path id="Path_144" data-name="Path 144" d="M29.712,34.949a9.366,9.366,0,0,0-9.356-9.356,3.119,3.119,0,1,1,2.7-4.666,3.119,3.119,0,0,0,5.388-3.143,9.279,9.279,0,0,0-4.971-4.067v-.6a3.119,3.119,0,1,0-6.237,0v.575a9.333,9.333,0,0,0,3.119,18.137,3.119,3.119,0,1,1-2.7,4.666,3.119,3.119,0,0,0-5.388,3.143,9.279,9.279,0,0,0,4.971,4.067v.6a3.119,3.119,0,0,0,6.237,0v-.575A9.341,9.341,0,0,0,29.712,34.949Z" transform="translate(17.068 8.712)" fill="#f4f4f4"/>
      <path id="Path_145" data-name="Path 145" d="M35.593,53.424a3.124,3.124,0,0,1-1.395-.329A25.546,25.546,0,0,1,20,30.122V25.356a3.12,3.12,0,0,1,1.724-2.79L34.2,16.329a3.122,3.122,0,0,1,2.79,0l12.475,6.237a3.119,3.119,0,0,1,1.724,2.79v4.766a25.546,25.546,0,0,1-14.2,22.973,3.123,3.123,0,0,1-1.395.329Zm-9.356-26.14v2.839a19.326,19.326,0,0,0,9.356,16.626,19.326,19.326,0,0,0,9.356-16.626V27.284l-9.356-4.678Z" transform="translate(36.136 21.424)" fill="#f4f4f4"/>
    </g>
  </g>
</svg>
