<svg xmlns="http://www.w3.org/2000/svg" width="87.5" height="75" viewBox="0 0 87.5 75">
  <g id="j" transform="translate(-2 -4)">
    <g id="Group_1280" data-name="Group 1280" transform="translate(2 4)">
      <path id="Path_8937" data-name="Path 8937" d="M42.625,79H11.375A9.385,9.385,0,0,1,2,69.625V13.375A9.385,9.385,0,0,1,11.375,4h31.25A9.385,9.385,0,0,1,52,13.375v56.25A9.385,9.385,0,0,1,42.625,79ZM11.375,10.25A3.128,3.128,0,0,0,8.25,13.375v56.25a3.128,3.128,0,0,0,3.125,3.125h31.25a3.128,3.128,0,0,0,3.125-3.125V13.375a3.128,3.128,0,0,0-3.125-3.125Z" transform="translate(-2 -4)" fill="#f4f4f4"/>
      <path id="Path_8938" data-name="Path 8938" d="M17.375,28.25h-6.25a3.125,3.125,0,0,1,0-6.25h6.25a3.125,3.125,0,0,1,0,6.25Z" transform="translate(10.75 34.25)" fill="#f4f4f4"/>
      <path id="Path_8939" data-name="Path 8939" d="M25.75,33a9.385,9.385,0,0,0-9.375-9.375,3.125,3.125,0,1,1,2.71-4.674,3.125,3.125,0,1,0,5.4-3.153A9.293,9.293,0,0,0,19.5,11.724v-.6a3.125,3.125,0,0,0-6.25,0V11.7a9.352,9.352,0,0,0,3.125,18.174,3.125,3.125,0,1,1-2.71,4.674,3.125,3.125,0,1,0-5.4,3.153,9.293,9.293,0,0,0,4.981,4.074v.6a3.125,3.125,0,0,0,6.25,0V41.8A9.36,9.36,0,0,0,25.75,33Z" transform="translate(8.625 4.5)" fill="#f4f4f4"/>
      <path id="Path_8940" data-name="Path 8940" d="M48.125,22.25H30.669l.916-.916a3.125,3.125,0,1,0-4.419-4.419l-6.25,6.25a3.124,3.124,0,0,0,0,4.419l6.25,6.25a3.125,3.125,0,1,0,4.419-4.419l-.916-.916H48.125a3.125,3.125,0,0,0,0-6.25Z" transform="translate(36.25 21.5)" fill="#f4f4f4"/>
      <path id="Path_8941" data-name="Path 8941" d="M50.334,17.166l-6.25-6.25a3.125,3.125,0,0,0-4.419,4.419l.916.916H23.125a3.125,3.125,0,0,0,0,6.25H40.581l-.916.916a3.125,3.125,0,1,0,4.419,4.419l6.25-6.25a3.124,3.124,0,0,0,0-4.419Z" transform="translate(36.25 8.75)" fill="#f4f4f4"/>
    </g>
  </g>
</svg>
