<svg id="Statistic" xmlns="http://www.w3.org/2000/svg" width="77.39" height="77.39" viewBox="0 0 77.39 77.39">
  <path id="Path_283" data-name="Path 283" d="M34.489,37.91,19.277,22.553,4.041,35.612A2.419,2.419,0,1,1,.9,31.936L17.826,17.426a2.418,2.418,0,0,1,3.289,0L36.206,32.783,56.255,12.71a2.418,2.418,0,0,1,3.434,0L71.781,24.8a2.428,2.428,0,0,1-3.434,3.434l-10.375-10.4L37.923,37.91a2.418,2.418,0,0,1-3.434,0Z" transform="translate(0.071 17.013)" fill="#4a44e2"/>
  <path id="Path_284" data-name="Path 284" d="M2.418,16.929A2.418,2.418,0,0,1,0,14.511V2.418a2.418,2.418,0,1,1,4.837,0V14.511a2.418,2.418,0,0,1-2.418,2.418Z" fill="#4a44e2"/>
  <path id="Path_285" data-name="Path 285" d="M74.972,59.787H72.553V40.44a2.418,2.418,0,0,0-4.837,0V59.787H60.461V30.766a2.418,2.418,0,1,0-4.837,0V59.787H38.7V50.114a2.418,2.418,0,0,0-4.837,0v9.674H21.766V35.6a2.418,2.418,0,1,0-4.837,0V59.787H4.837V11.418a2.418,2.418,0,1,0-4.837,0V62.206a2.418,2.418,0,0,0,2.418,2.418H74.972a2.418,2.418,0,1,0,0-4.837Z" transform="translate(0 12.766)" fill="#4a44e2"/>
  <path id="Path_286" data-name="Path 286" d="M11.255,12.092a2.418,2.418,0,1,1,0-4.837h4.837a2.418,2.418,0,0,0,0-4.837H13.674a2.418,2.418,0,1,0-4.837,0v.435a7.255,7.255,0,0,0,2.418,14.075,2.418,2.418,0,1,1,0,4.837H6.418a2.418,2.418,0,1,0,0,4.837H8.837a2.418,2.418,0,0,0,4.837,0v-.435a7.255,7.255,0,0,0-2.418-14.075Z" transform="translate(5.674)" fill="#4a44e2"/>
</svg>
