<svg xmlns="http://www.w3.org/2000/svg" width="87.5" height="75" viewBox="0 0 87.5 75">
  <g id="v" transform="translate(-2 -4)">
    <g id="Group_1289" data-name="Group 1289" transform="translate(2 4)">
      <path id="Path_8989" data-name="Path 8989" d="M36.085,34.54a3.124,3.124,0,0,0-4.419,0l-4.041,4.041V21.125a3.125,3.125,0,0,0-6.25,0V38.581L17.334,34.54a3.125,3.125,0,0,0-4.419,4.419l9.375,9.375a3.123,3.123,0,0,0,4.419,0l9.375-9.375a3.124,3.124,0,0,0,0-4.419Z" transform="translate(19.25 25.75)" fill="#f4f4f4"/>
      <path id="Path_8990" data-name="Path 8990" d="M14.375,25.625h6.25A15.643,15.643,0,0,0,5,10v6.25A9.385,9.385,0,0,1,14.375,25.625Z" transform="translate(4.375 8.75)" fill="#f4f4f4"/>
      <path id="Path_8991" data-name="Path 8991" d="M37.625,16.25V10A15.643,15.643,0,0,0,22,25.625h6.25A9.385,9.385,0,0,1,37.625,16.25Z" transform="translate(40.5 8.75)" fill="#f4f4f4"/>
      <path id="Path_8992" data-name="Path 8992" d="M29.477,5a3.1,3.1,0,0,0,.257,1.26,12.443,12.443,0,0,1,1.016,4.99c0,5.081-2.862,9.375-6.25,9.375s-6.25-4.294-6.25-9.375a12.443,12.443,0,0,1,1.016-4.99A3.089,3.089,0,0,0,19.524,5H13.072A18.943,18.943,0,0,0,12,11.25c0,8.762,5.49,15.625,12.5,15.625S37,20.012,37,11.25A18.943,18.943,0,0,0,35.928,5H29.476Z" transform="translate(19.25 -1.875)" fill="#f4f4f4"/>
      <path id="Path_8993" data-name="Path 8993" d="M72.75,33.125H10.25V5H4V36.25a3.124,3.124,0,0,0,3.125,3.125h68.75A3.124,3.124,0,0,0,79,36.25V5H72.75Z" transform="translate(2.25 -1.875)" fill="#f4f4f4"/>
      <path id="Path_8994" data-name="Path 8994" d="M86.375,10.25H5.125a3.125,3.125,0,1,1,0-6.25h81.25a3.125,3.125,0,1,1,0,6.25Z" transform="translate(-2 -4)" fill="#f4f4f4"/>
    </g>
  </g>
</svg>
