<svg xmlns="http://www.w3.org/2000/svg" width="75" height="75" viewBox="0 0 75 75">
  <g id="s" transform="translate(-2 -2)">
    <g id="Group_1879" data-name="Group 1879" transform="translate(2 2)">
      <path id="Path_9304" data-name="Path 9304" d="M47.536,77H4.679A2.678,2.678,0,0,1,2,74.321V20.75a2.681,2.681,0,0,1,.45-1.486L13.164,3.193A2.678,2.678,0,0,1,15.393,2H36.821A2.677,2.677,0,0,1,39.05,3.193L49.764,19.264a2.681,2.681,0,0,1,.45,1.486V74.321A2.677,2.677,0,0,1,47.536,77ZM7.357,71.643h37.5V21.561l-9.469-14.2H16.826l-9.469,14.2Z" transform="translate(-2 -2)" fill="#4a44e2"/>
      <path id="Path_9305" data-name="Path 9305" d="M36.786,4a53.816,53.816,0,0,0-9.754.874C16.526,6.815,10,11.612,10,17.393a2.679,2.679,0,1,0,5.357,0c0-2.383,4.432-5.734,12.655-7.254a48.552,48.552,0,0,1,8.773-.782c13.082,0,21.429,4.758,21.429,8.036s-8.347,8.036-21.429,8.036c-.853,0-1.682-.024-2.514-.076-.058,0-.108.023-.165.024V30.7c.883.051,1.767.081,2.679.081,15.271,0,26.786-5.757,26.786-13.393S52.057,4,36.786,4Z" transform="translate(11.429 1.357)" fill="#4a44e2"/>
      <path id="Path_9306" data-name="Path 9306" d="M24.071,35.429a8.044,8.044,0,0,0-8.036-8.036,2.679,2.679,0,1,1,2.32-4.007,2.679,2.679,0,0,0,4.627-2.7,7.97,7.97,0,0,0-4.269-3.493v-.514a2.679,2.679,0,1,0-5.357,0v.494A8.016,8.016,0,0,0,16.036,32.75a2.679,2.679,0,1,1-2.32,4.007,2.679,2.679,0,0,0-4.627,2.7,7.97,7.97,0,0,0,4.269,3.493v.514a2.679,2.679,0,1,0,5.357,0v-.494A8.022,8.022,0,0,0,24.071,35.429Z" transform="translate(8.071 18.143)" fill="#4a44e2"/>
    </g>
  </g>
</svg>
