<svg xmlns="http://www.w3.org/2000/svg" width="235.461" height="30.703" viewBox="0 0 235.461 30.703">
  <path id="Tesla__Inc.-Wordmark-Black-Logo.wine" data-name="Tesla,_Inc.-Wordmark-Black-Logo.wine" d="M201.161,12.152V30.666H207.1V18.339h21.609V30.666h5.933V12.184l-33.48-.032m5.276-5.989h22.83A8.425,8.425,0,0,0,235.462.027H200.244a8.458,8.458,0,0,0,6.193,6.136M183.179,30.678a8.49,8.49,0,0,0,5.221-6.033H161.77l.017-24.6-5.97.017V30.678h27.362M111.426,6.08h21.085c3.179-.924,5.848-3.345,6.5-6.03H105.516V18.145h27.413v6.35l-21.5.017a12,12,0,0,0-7.653,6.191l1.742-.032h33.3V12.129H111.426V6.08m-52.051.058H82.2A8.42,8.42,0,0,0,88.394,0H53.178a8.461,8.461,0,0,0,6.2,6.139m0,12.1H82.2a8.4,8.4,0,0,0,6.2-6.136H53.178a8.444,8.444,0,0,0,6.2,6.136m0,12.435H82.2a8.418,8.418,0,0,0,6.2-6.137H53.178a8.458,8.458,0,0,0,6.2,6.137M0,.074a8.519,8.519,0,0,0,6.182,6.1h9.607l.49.193V30.606h6V6.364l.545-.193h9.615a8.638,8.638,0,0,0,6.155-6.1V.015H0V.074"/>
</svg>
