<svg id="Group_1279" data-name="Group 1279" xmlns="http://www.w3.org/2000/svg" width="64.286" height="75" viewBox="0 0 64.286 75">
  <path id="Path_8933" data-name="Path 8933" d="M54.893,36.071H6.679A2.679,2.679,0,0,1,4,33.393V22.679A2.679,2.679,0,0,1,6.679,20H54.893a2.678,2.678,0,0,1,2.679,2.679V33.393A2.678,2.678,0,0,1,54.893,36.071ZM9.357,30.714H52.214V25.357H9.357Z" transform="translate(-4 28.214)" fill="#f4f4f4"/>
  <path id="Path_8934" data-name="Path 8934" d="M58.893,40.071H10.679A2.679,2.679,0,0,1,8,37.393V26.679A2.679,2.679,0,0,1,10.679,24H58.893a2.678,2.678,0,0,1,2.679,2.679V37.393A2.678,2.678,0,0,1,58.893,40.071ZM13.357,34.714H56.214V29.357H13.357Z" transform="translate(2.714 34.929)" fill="#f4f4f4"/>
  <path id="Path_8935" data-name="Path 8935" d="M32.786,55.571A26.786,26.786,0,1,1,59.571,28.786,26.815,26.815,0,0,1,32.786,55.571Zm0-48.214A21.429,21.429,0,1,0,54.214,28.786,21.453,21.453,0,0,0,32.786,7.357Z" transform="translate(-0.643 -2)" fill="#f4f4f4"/>
  <path id="Path_8936" data-name="Path 8936" d="M29.071,27.429a8.044,8.044,0,0,0-8.036-8.036,2.679,2.679,0,1,1,2.323-4.006,2.678,2.678,0,1,0,4.625-2.7,7.965,7.965,0,0,0-4.269-3.492V8.679a2.679,2.679,0,1,0-5.357,0v.494A8.016,8.016,0,0,0,21.036,24.75a2.679,2.679,0,1,1-2.32,4.007,2.679,2.679,0,0,0-4.628,2.7,7.959,7.959,0,0,0,4.269,3.494v.513a2.679,2.679,0,1,0,5.357,0v-.494a8.022,8.022,0,0,0,5.357-7.542Z" transform="translate(11.107 4.714)" fill="#f4f4f4"/>
</svg>
