<svg xmlns="http://www.w3.org/2000/svg" width="183.141" height="132.226" viewBox="0 0 183.141 132.226">
  <g id="vacasa-llc-vector-logo" transform="translate(19.271 -76.975)">
    <path id="Path_9312" data-name="Path 9312" d="M288.937,216.291l-2.089-1.216-6.267-3.623a2.894,2.894,0,0,0-2.856,0l-6.267,3.623-2.063,1.19-6.267,3.623a2.866,2.866,0,0,0-1.428,2.459V249.5h7.616V226.763a2.866,2.866,0,0,1,1.428-2.459l6.9-3.993a2.894,2.894,0,0,1,2.856,0l6.928,3.993a2.866,2.866,0,0,1,1.428,2.459v22.715h7.616V222.32a2.866,2.866,0,0,0-1.428-2.459Z" transform="translate(-206.671 -98.639)" fill="#141414"/>
    <path id="Path_9313" data-name="Path 9313" d="M261.565,158.05l-17.453-10.075-6.267-3.623a2.894,2.894,0,0,0-2.856,0l-6.267,3.623L211.3,158.05l-6.267,3.623a2.866,2.866,0,0,0-1.428,2.459v36.016h7.616V168.574a2.866,2.866,0,0,1,1.428-2.459l22.266-12.852a2.894,2.894,0,0,1,2.856,0l22.292,12.878a2.866,2.866,0,0,1,1.428,2.459v31.6H269.1V164.158a2.866,2.866,0,0,0-1.428-2.459Z" transform="translate(-163.935 -49.283)" fill="#141414"/>
    <path id="Path_9314" data-name="Path 9314" d="M240.459,103.531,195.108,77.352a2.894,2.894,0,0,0-2.856,0l-45.325,26.179a2.866,2.866,0,0,0-1.428,2.459v57.436a2.861,2.861,0,0,0,2.856,2.856h35.567v-7.7H153.2v-48.18a2.866,2.866,0,0,1,1.428-2.459L192.279,86.21a2.894,2.894,0,0,1,2.856,0l37.656,21.737a2.866,2.866,0,0,1,1.428,2.459V158.56H203.465v7.7h35.567a2.861,2.861,0,0,0,2.856-2.856V105.99a2.834,2.834,0,0,0-1.428-2.459" transform="translate(-121.199)" fill="#141414"/>
    <path id="Path_9315" data-name="Path 9315" d="M33.292,471.906c-.079,4.152-3.067,8.991-11.159,8.991-4.919,0-7.854-2.01-7.854-5.368,0-3.649,2.829-5.553,8.885-5.923l10.128-.317v2.618ZM25.147,452.1h-.159c-4.548,0-8.383,1.349-10.763,3.755a9.472,9.472,0,0,0-2.591,4.919.356.356,0,0,0,.344.423h4.39c.926-3.173,3.94-4.945,8.568-4.945h.159c5.13,0,8.224,1.825,8.224,4.866v4.072a.181.181,0,0,1-.185.185l-10.577.45c-8.594.45-12.772,3.623-12.772,9.7,0,7.06,6.294,9.573,12.191,9.573,4.548,0,7.854-1.243,10.763-4.019l.635-.714v4.125h4.39V461.752c0-6.135-4.6-9.652-12.614-9.652m32.05,0c-9.044,0-15.364,7.431-15.364,16.554,0,9.07,6.056,16.448,15.364,16.448a14.368,14.368,0,0,0,11.979-5.9,16.337,16.337,0,0,0,1.666-2.8.36.36,0,0,0-.317-.5H65.95a11.084,11.084,0,0,1-2.115,2.512,9.675,9.675,0,0,1-6.664,2.512c-5.818,0-10.789-5.447-10.789-12.243,0-6.849,4.945-12.349,10.789-12.349a9.621,9.621,0,0,1,7.034,2.882,11.224,11.224,0,0,1,1.64,1.983h4.575a.346.346,0,0,0,.317-.5,15.394,15.394,0,0,0-2.433-3.649A14.317,14.317,0,0,0,57.2,452.1m40.247,19.806c-.079,4.152-3.067,8.991-11.159,8.991-4.919,0-7.854-2.01-7.854-5.368,0-3.649,2.829-5.553,8.885-5.923l10.128-.317v2.618ZM89.273,452.1h-.159c-4.548,0-8.383,1.349-10.763,3.755a9.5,9.5,0,0,0-2.591,4.892.371.371,0,0,0,.37.45h4.363c.926-3.173,3.94-4.945,8.568-4.945h.159c5.13,0,8.224,1.825,8.224,4.866v4.072a.181.181,0,0,1-.185.185l-10.577.45c-8.594.45-12.772,3.623-12.772,9.7,0,7.06,6.294,9.573,12.191,9.573,4.548,0,7.854-1.243,10.763-4.019l.635-.714v4.125h4.39V461.752c0-6.135-4.6-9.652-12.614-9.652m29.723,0c-8.409,0-12.243,4.76-12.243,9.176a7.012,7.012,0,0,0,1.454,4.707c2.221,2.644,5.342,3.279,11.053,3.649,5.633.37,8.462,2.221,8.621,5.659a4.619,4.619,0,0,1-1.269,3.491c-1.322,1.375-3.649,2.115-6.717,2.115H119.6c-3.491-.053-6.426-1.3-8.065-3.464a7.383,7.383,0,0,1-.873-1.534h-4.257a.364.364,0,0,0-.344.476c1.534,5.395,6.558,8.647,13.592,8.753h.317c4.363,0,7.96-1.19,10.1-3.385a8.58,8.58,0,0,0,2.354-6.452c-.106-5.9-4.152-9.07-12.3-9.758-5.262-.45-8.779-1.375-8.779-4.416,0-2.777,3.279-4.839,7.642-4.839,3.464,0,6.082,1.3,7.4,3.623a6.888,6.888,0,0,1,.555,1.349h4.284a.371.371,0,0,0,.344-.423,13.643,13.643,0,0,0-.344-1.322c-1.534-4.707-5.976-7.4-12.243-7.4M159.4,471.906c-.079,4.152-3.067,8.991-11.159,8.991-4.919,0-7.854-2.01-7.854-5.368,0-3.649,2.829-5.553,8.885-5.923l10.128-.317ZM151.257,452.1H151.1c-4.548,0-8.383,1.349-10.763,3.755a9.472,9.472,0,0,0-2.591,4.919.335.335,0,0,0,.344.4h4.39c.926-3.173,3.94-4.945,8.568-4.945h.159c5.13,0,8.224,1.825,8.224,4.866v4.072a.181.181,0,0,1-.185.185l-10.577.45c-8.594.45-12.772,3.623-12.772,9.7,0,7.06,6.294,9.573,12.191,9.573,4.548,0,7.854-1.243,10.763-4.019l.635-.714v4.125h4.39V461.726c0-6.109-4.6-9.626-12.614-9.626m-146.1.74-9.758,26.5-9.943-26.5h-4.363a.364.364,0,0,0-.344.476l11.9,31.151h5.395L9.836,453.316a.353.353,0,0,0-.344-.476Z" transform="translate(0 -275.928)" fill="#141414"/>
  </g>
</svg>
