<svg id="Group_2055" data-name="Group 2055" xmlns="http://www.w3.org/2000/svg" xmlns:xlink="http://www.w3.org/1999/xlink" width="118.296" height="83.261" viewBox="0 0 118.296 83.261">
  <defs>
    <clipPath id="clip-path">
      <rect id="Rectangle_358" data-name="Rectangle 358" width="118.296" height="83.261" fill="none"/>
    </clipPath>
  </defs>
  <g id="Group_1921" data-name="Group 1921" transform="translate(0 0)" clip-path="url(#clip-path)">
    <path id="Path_9317" data-name="Path 9317" d="M117.093,17.946l.01.01S115.947,9.8,112.385,6.22c-4.5-4.708-9.541-4.737-11.852-5.016C83.993,0,59.143,0,59.143,0S34.3,0,17.744,1.2c-2.311.279-7.346.3-11.852,5.016C2.311,9.8,1.175,17.956,1.175,17.956A180.229,180.229,0,0,0,0,37.115v8.963A180.738,180.738,0,0,0,1.175,65.238S2.33,73.392,5.863,77.022c4.506,4.718,10.417,4.564,13.065,5.064,9.464.9,40.225,1.175,40.225,1.175s24.869,0,41.4-1.223c2.32-.279,7.356-.308,11.861-5.016,3.553-3.582,4.708-11.746,4.708-11.746A180.23,180.23,0,0,0,118.3,46.117V37.105a182.3,182.3,0,0,0-1.2-19.159M46.9,56.958V23.713L78.851,40.388Z" transform="translate(0 0)" fill="#4a44e2"/>
  </g>
</svg>
